<svg width="350" height="227" viewBox="0 0 350 227" fill="none" xmlns="http://www.w3.org/2000/svg">
<g clip-path="url(#clip0_1_172)">
<path d="M152.241 203.253C128.864 194.611 107.63 178.148 101.062 156.874C94.5423 135.692 102.688 109.702 117.641 88.3466C132.541 66.9011 154.152 50.1449 175.835 49.4895C197.478 48.9791 219.202 64.8073 236.567 84.2721C253.935 103.737 267.089 126.879 264.749 149.026C262.319 171.226 244.342 192.341 222.717 202.601C201.042 212.768 175.618 211.895 152.241 203.253Z" fill="#E9D7EF"/>
<path d="M4 146.132C10.5047 137.783 17.1457 128.541 20.24 102.136C25.6398 56.0376 34.6994 37.5994 44.7479 41.1722C53.6045 44.339 52.6475 70.1548 54.8312 82.7843C59.4538 109.519 72.9098 113.153 82.6393 93.1518C92.2354 73.4289 89.492 55.475 114.754 51.1076" stroke="white" stroke-linecap="round" stroke-linejoin="round"/>
<path d="M175.321 222.248C156.642 222.248 139.063 221.738 125.81 220.79C110.927 219.72 102.488 218.212 101.441 216.388C99.6661 213.276 99.2543 209.894 100.298 206.565C101.563 202.502 104.895 198.854 109.224 196.789C113.09 194.939 120.215 192.874 128.312 191.245C135.026 189.905 145.408 188.229 156.863 187.962L155.549 180.204L195.064 180.326L193.777 187.962C205.232 188.229 215.614 189.882 222.301 191.245C230.401 192.874 237.549 194.939 241.392 196.789C245.719 198.854 249.077 202.502 250.315 206.565C251.336 209.871 250.947 213.276 249.173 216.388C248.129 218.212 239.713 219.72 224.807 220.79C211.577 221.738 193.997 222.248 175.321 222.248Z" fill="#5B5F97"/>
<path d="M160.657 208.268C158.299 208.268 155.843 207.731 153.387 206.684C146.261 203.671 143.44 194.356 145.847 188.64C149.64 188.278 153.337 188.034 156.864 187.962L155.649 180.616H175.563C175.757 183.971 174.325 186.332 173.06 188.4C171.915 190.296 170.821 192.094 171.137 194.356C171.842 199.486 171.77 202.723 169.484 205.008C168.73 205.785 165.836 208.268 160.657 208.268Z" fill="#9D8BC3"/>
<path d="M151.414 139.056C149.715 137.574 148.57 134.851 148.497 132.079C148.448 129.866 149.007 126.633 152.05 123.712C153.433 122.375 154.602 121.378 155.648 120.479C158.322 118.217 159.926 116.831 160.828 113.281L170.505 115.105V136.165L151.414 139.056Z" fill="#181818"/>
<path d="M180.186 136.188V115.128L189.84 113.281C190.739 116.831 192.342 118.194 195.019 120.479C196.063 121.378 197.255 122.375 198.618 123.712C201.657 126.633 202.217 129.866 202.168 132.079C202.095 134.851 200.952 137.574 199.25 139.056L180.186 136.188Z" fill="#181818"/>
<path d="M187.674 208.169C185.145 208.169 182.471 206.029 180.815 202.723C178.945 198.976 179.478 196.059 180.598 194.574C181.546 193.309 183.953 192.045 186.653 192.045C188.526 192.045 190.228 192.677 191.565 193.869C193.558 195.67 194.654 198.611 194.312 201.36C193.996 204.01 192.415 206.249 189.863 207.609C189.182 207.975 188.454 208.169 187.674 208.169Z" fill="#9D8BC3"/>
<path d="M150.564 227.526L150.32 200.873C161.726 203.233 171.94 206.394 172.036 206.417C172.085 206.345 178.482 200.023 182.687 200.023C184.39 200.023 187.31 203.451 190.105 206.76C191.613 208.558 193.072 210.237 194.287 211.402C195.894 212.887 198.13 214.442 200.319 215.95C203.066 217.846 205.644 219.647 207.079 221.349C209.098 223.756 209.852 225.337 209.39 226.311C209.025 227.112 207.856 227.5 205.887 227.5L150.564 227.526Z" fill="#9B5A59"/>
<path opacity="0.25" d="M150.857 227.5V213.763C150.904 213.714 156.159 208.218 157.739 202.552C165.885 204.498 171.964 206.394 172.013 206.417C173.715 204.764 175.661 203.207 177.607 201.943C181.328 204.788 184.976 206.2 188.743 207.56C190.909 208.314 192.806 209.651 194.288 211.402C195.894 212.887 198.13 214.442 200.32 215.95C203.066 217.846 205.644 219.647 207.08 221.349C209.098 223.756 209.852 225.337 209.391 226.311C209.026 227.112 207.857 227.5 205.888 227.5H150.857Z" fill="#181818"/>
<path d="M135.803 227.526C117.005 227.526 105.771 223.878 101.467 216.388C100.299 214.369 100.371 212.084 101.635 209.773C104.944 203.767 115.814 198.538 125.856 198.126C126.515 198.1 127.196 198.077 127.901 198.077C133.93 198.077 141.664 199.048 150.88 200.971V227.5H135.803V227.526Z" fill="#5B5F97"/>
<path d="M155.649 180.642L154.115 171.4L196.528 171.377L194.994 180.642H155.649Z" fill="#9B5A59"/>
<path opacity="0.25" d="M177.801 187.985L194.508 183.681L193.8 187.962L177.801 187.985Z" fill="black"/>
<path d="M270.695 208.34C269.941 208.34 269.723 208.34 268.143 207.392C268.143 207.392 267.29 207.853 265.808 207.853C264.422 207.853 262.987 207.464 261.505 206.684C260.678 206.249 258.561 205.225 255.618 203.793C245.769 199.002 227.435 190.102 221.963 186.088C218.022 183.217 211.045 176.605 205.865 171.571L220.867 156.906L220.916 156.955C224.031 160.797 226.487 163.813 227.92 165.005C232.516 168.848 249.539 181.541 254.208 183.244C254.791 183.461 255.983 183.803 257.514 184.241C263.013 185.845 272.203 188.495 272.203 190.343C272.203 191.851 270.135 192.167 268.41 192.167C267.145 192.167 266.052 191.999 266.026 191.999C266.148 192.045 277.408 198.66 278.113 201.699C278.284 202.407 278.209 202.94 277.919 203.306C277.53 203.793 276.872 203.839 276.605 203.839C276.506 203.839 276.46 203.839 276.46 203.839C276.483 203.839 277.675 205.518 276.944 206.684C276.532 207.342 275.923 207.682 275.097 207.682C274.099 207.682 273.151 207.171 273.151 207.171C273.151 207.171 272.667 208.363 270.793 208.363H270.695V208.34Z" fill="#9B5A59"/>
<path d="M79.8976 208.34C78.0242 208.34 77.537 207.171 77.5138 207.148C77.5138 207.148 76.5655 207.659 75.5679 207.659C74.7414 207.659 74.1324 207.316 73.7206 206.661C73.0159 205.542 74.1092 203.938 74.1817 203.816C74.1585 203.816 74.1092 203.816 74.0367 203.816C73.7699 203.816 73.0884 203.767 72.723 203.28C72.4301 202.917 72.3576 202.381 72.5287 201.676C73.2334 198.637 84.3955 192.094 84.6159 191.972C84.5666 191.999 83.4704 192.167 82.2553 192.167C80.5298 192.167 78.4621 191.851 78.4621 190.343C78.4621 188.495 87.6551 185.822 93.1506 184.241C94.6818 183.803 95.8737 183.438 96.4566 183.243C101.126 181.541 118.125 168.848 122.745 165.005C124.181 163.813 126.637 160.797 129.725 156.955L144.727 171.594C139.574 176.629 132.593 183.217 128.655 186.088C123.183 190.102 104.846 199.002 94.9979 203.793C92.0573 205.225 89.9171 206.249 89.1138 206.684C87.629 207.464 86.1964 207.853 84.8102 207.853C83.3486 207.853 82.4757 207.392 82.4757 207.392C80.8952 208.34 80.6748 208.34 79.9208 208.34H79.8976Z" fill="#9B5A59"/>
<path d="M129.166 157.465C135.294 149.928 144.243 139.106 150.71 135.628C152.56 134.68 154.48 133.854 156.522 133.393L159.636 144.212C161.388 150.317 167.078 154.571 173.423 154.571H177.17C183.515 154.571 189.182 150.317 190.956 144.212L193.972 133.393C196.04 133.854 198.108 134.68 199.978 135.652C206.448 139.132 215.348 149.586 221.453 157.1L206.01 172.177C201.536 167.824 197.864 163.669 197.838 163.619L196.55 171.423H154.164L152.876 163.593C152.85 163.642 149.08 167.557 144.609 171.936L129.166 157.465Z" fill="#5B5F97"/>
<path opacity="0.25" d="M151.538 155.279L148.789 167.656L148.812 167.63C151.219 165.249 152.826 163.593 152.849 163.593L151.538 155.279Z" fill="black"/>
<path opacity="0.25" d="M201.851 167.63C199.444 165.249 197.814 163.593 197.814 163.593L199.128 155.279L201.851 167.63Z" fill="black"/>
<path d="M173.399 154.597C167.028 154.597 161.362 150.317 159.61 144.212L156.521 133.537C159.975 132.734 163.525 132.322 167.077 132.322C167.246 132.322 167.417 132.322 167.588 132.322V122.984H183.103V132.322C183.271 132.322 183.419 132.322 183.587 132.322C187.114 132.322 190.617 132.711 194.045 133.514L190.956 144.238C189.207 150.34 183.515 154.62 177.169 154.62H173.399V154.597Z" fill="#9B5A59"/>
<path opacity="0.25" d="M179.99 129.794C177.801 129.794 174.663 129.356 172.207 127.311C171.673 126.873 171.453 126.389 171.525 125.902C171.795 124.295 175.344 122.984 175.368 122.958H183.076V129.478C183.053 129.501 181.765 129.794 179.99 129.794Z" fill="#181818"/>
<path d="M188.159 106.35C188.986 105.79 189.934 105.474 190.955 105.474C192.878 105.474 194.919 106.617 195.114 108.78C195.723 115.444 187.234 117.147 187.139 117.17L188.159 106.35Z" fill="#9B5A59"/>
<path d="M163.478 117.196C163.379 117.173 154.894 115.494 155.5 108.806C155.694 106.617 157.739 105.5 159.658 105.5C160.679 105.5 161.654 105.79 162.457 106.35L163.478 117.196Z" fill="#9B5A59"/>
<path d="M175.323 128.431C170.335 128.431 165.254 124.832 163.453 120.041C161.655 115.201 160.997 105.474 162.725 100.634C164.912 96.6698 169.146 95.3329 175.491 95.3329C181.839 95.3329 184.974 97.2788 187.894 100.634C189.109 105.181 188.988 115.227 187.19 120.041C185.389 124.832 180.282 128.431 175.323 128.431Z" fill="#9B5A59"/>
<path d="M172.23 128.454C173.228 128.747 174.275 128.892 175.319 128.892C177.946 128.892 180.768 127.848 183.076 126.024" stroke="#181818" stroke-linecap="round" stroke-linejoin="round"/>
<path d="M188.963 109.972C185.729 109.534 182.687 107.907 180.158 105.231C178.018 102.969 176.293 100.051 175.295 96.9888C174.324 100.051 172.595 102.995 170.455 105.231C167.926 107.907 164.887 109.534 161.653 109.972C161.459 106.13 161.775 102.8 162.552 100.634C164.182 96.0144 168.95 93.2681 175.295 93.2681C181.643 93.2681 186.408 96.0144 188.038 100.634C188.815 102.8 189.131 106.106 188.963 109.972Z" fill="#181818"/>
<path d="M213.889 201.505C212.114 201.505 210.339 201.165 208.805 200.533C206.569 199.608 204.794 197.81 203.797 195.476C202.872 193.286 202.677 190.757 203.31 188.495C209.803 189.055 216.345 190.027 222.716 191.317C223.737 194.893 221.11 198.782 218.996 200.29C217.949 201.02 215.93 201.505 213.889 201.505Z" fill="#9D8BC3"/>
<path d="M199.783 227.526V201.02C208.999 199.098 216.734 198.126 222.766 198.126C223.47 198.126 224.149 198.149 224.807 198.176C234.85 198.587 245.719 203.793 249.028 209.822C250.292 212.133 250.365 214.418 249.199 216.437C244.893 223.928 233.658 227.576 214.86 227.576H199.783V227.526Z" fill="#5B5F97"/>
<path d="M218.169 227.477C216.756 224.389 216.832 219.549 217.316 217.092C218.021 213.592 221.501 205.884 227.237 205.884C227.553 205.884 227.895 205.907 228.211 205.956C231.251 206.417 232.492 209.776 233.562 212.742C234.217 214.54 234.826 216.243 235.775 217.092C236.529 217.774 237.793 218.31 239.13 218.87C240.977 219.647 242.874 220.45 243.897 221.787C238.448 225.337 230.035 227.184 218.169 227.477Z" fill="#9D8BC3"/>
<path d="M199.443 200.994C204.452 199.924 210.263 199.022 215.347 198.463C216.539 201.163 216.417 205.489 214.132 207.775C212.914 208.993 211.699 209.625 210.507 210.231C208.976 211.011 207.517 211.765 206.226 213.708C206.032 214.001 205.864 214.291 205.67 214.607C204.501 216.507 203.164 218.67 200.171 218.815L199.443 201.163V200.994Z" fill="#9D8BC3"/>
<path d="M135.708 227.526C132.35 227.526 129.14 227.405 126.222 227.161C124.131 222.347 123.377 216.315 127.559 213.786C128.777 213.055 130.041 212.693 131.428 212.693C132.62 212.693 133.736 212.937 134.855 213.177C135.926 213.421 136.923 213.641 137.944 213.641C139.403 213.641 140.618 213.154 141.786 212.133C143.318 210.77 146.989 208.63 150.881 208.291V227.526H135.708Z" fill="#9D8BC3"/>
<path d="M144.777 227.526C142.831 227.526 141.665 227.112 141.277 226.335C140.813 225.337 141.544 223.756 143.585 221.373C145.021 219.67 147.599 217.896 150.348 215.976C152.511 214.468 154.773 212.91 156.377 211.429C157.618 210.286 159.054 208.584 160.562 206.783C163.381 203.477 166.275 200.046 167.977 200.046C172.185 200.046 178.58 206.371 178.629 206.443C178.725 206.417 189.037 203.256 200.417 200.873L200.051 227.526H144.777Z" fill="#9B5A59"/>
<path d="M187.26 203.523C182.055 204.909 178.627 205.979 178.627 205.979C177.679 205.057 176.704 204.205 175.684 203.378" stroke="#181818" stroke-linecap="round" stroke-linejoin="round"/>
<path d="M162.698 203.793C160.462 206.322 158.029 209.41 156.133 211.159C154.746 212.473 152.85 213.809 150.953 215.149" stroke="#181818" stroke-linecap="round" stroke-linejoin="round"/>
<path d="M135.682 206.272C133.762 206.272 132.083 205.373 130.868 203.671C129.821 202.212 129.165 200.24 128.994 198.126C132.837 198.199 137.335 198.637 142.395 199.44C141.566 202.285 139.863 205.785 136.557 206.2C136.264 206.249 135.974 206.272 135.682 206.272Z" fill="#9D8BC3"/>
<path d="M116.325 212.449C113.796 212.449 112.192 210.82 110.757 209.361C109.759 208.34 108.909 207.464 107.912 207.366C107.813 207.366 107.741 207.366 107.645 207.366C106.72 207.366 105.748 207.78 104.603 208.268C103.243 208.85 101.712 209.506 99.7656 209.651C100.009 204.471 103.73 199.414 109.249 196.789C111.777 195.571 115.864 194.234 120.727 192.97C122.844 201.165 124.276 209.822 119.048 211.89C118.076 212.278 117.177 212.449 116.325 212.449Z" fill="#9D8BC3"/>
<path d="M156.863 187.498H160.949" stroke="#0C0C0C" stroke-linecap="round" stroke-linejoin="round"/>
<path d="M185.121 187.498H193.778" stroke="black" stroke-linecap="round" stroke-linejoin="round"/>
<path d="M224.807 198.611C217.438 198.321 208.124 199.73 199.783 201.458" stroke="black" stroke-linecap="round" stroke-linejoin="round"/>
<path d="M125.906 198.611C133.275 198.321 142.59 199.73 150.93 201.458" stroke="black" stroke-linecap="round" stroke-linejoin="round"/>
<path d="M198.275 163.813L198.835 159.777" stroke="black" stroke-linecap="round" stroke-linejoin="round"/>
<path d="M152.439 163.813L151.879 159.777" stroke="black" stroke-linecap="round" stroke-linejoin="round"/>
<path d="M266.003 191.999C264.277 191.877 262.575 191.633 260.873 191.294C260.873 191.294 255.595 194.649 250.902 193.918" stroke="#181818" stroke-linecap="round" stroke-linejoin="round"/>
<path d="M276.507 203.599C275.318 201.458 264.666 195.061 264.666 195.061" stroke="#181818" stroke-linecap="round" stroke-linejoin="round"/>
<path d="M273.444 207.148C272.983 204.303 265.637 199.562 262.549 197.906" stroke="#181818" stroke-linecap="round" stroke-linejoin="round"/>
<path d="M268.142 207.392C268.945 205.736 264.444 203.135 260.164 200.751" stroke="#181818" stroke-linecap="round" stroke-linejoin="round"/>
<path d="M84.5176 191.999C86.2431 191.877 87.9454 191.633 89.6477 191.294C89.6477 191.294 94.9257 194.649 99.6179 193.918" stroke="#181818" stroke-linecap="round" stroke-linejoin="round"/>
<path d="M74.0137 203.599C75.2027 201.458 85.8544 195.061 85.8544 195.061" stroke="#181818" stroke-linecap="round" stroke-linejoin="round"/>
<path d="M77.0996 207.148C77.5636 204.303 84.9064 199.562 87.9949 197.906" stroke="#181818" stroke-linecap="round" stroke-linejoin="round"/>
<path d="M82.3999 207.392C81.5995 205.736 86.0974 203.135 90.3778 200.751" stroke="#181818" stroke-linecap="round" stroke-linejoin="round"/>
<path d="M175.468 110.996C175.468 110.996 176.123 112.721 176.1 113.281C176.074 113.841 175.685 114.107 175.273 114.325" stroke="#181818" stroke-linecap="round" stroke-linejoin="round"/>
<path d="M173.277 116.929C174.226 118.121 176.827 118.121 177.775 116.929" stroke="#181818" stroke-linecap="round" stroke-linejoin="round"/>
<path d="M167.588 110.288C168.293 111.164 170.189 111.164 170.894 110.288" stroke="#181818" stroke-linecap="round" stroke-linejoin="round"/>
<path d="M180.137 110.288C180.841 111.164 182.738 111.164 183.443 110.288" stroke="#181818" stroke-linecap="round" stroke-linejoin="round"/>
<path d="M189.133 111.944L191.493 110.532" stroke="#181818" stroke-linecap="round" stroke-linejoin="round"/>
<path d="M161.434 111.944L159.053 110.532" stroke="#181818" stroke-linecap="round" stroke-linejoin="round"/>
<path d="M175.368 93.3406C178.419 93.3406 180.89 90.8669 180.89 87.819C180.89 84.7711 178.419 82.3003 175.368 82.3003C172.32 82.3003 169.85 84.7711 169.85 87.819C169.85 90.8669 172.32 93.3406 175.368 93.3406Z" fill="#181818"/>
<path d="M189 106C181 90.4999 169 89.4999 161 106L158.5 105C165 85.9999 184 86 191.5 105L189 106Z" fill="#5B5F97" stroke="#5B5F97"/>
<path d="M230 32C232.938 37.1533 239.854 50.9834 253.618 57.8303C265.409 63.7434 270.597 51.1574 270.597 46.0389C270.597 38.641 265.893 35.4597 262.503 39.4008C257.353 45.3139 260.569 60.4954 279.483 88.1237C293.87 109.149 311.435 111.153 318.627 103.616C333.394 88.0889 334.188 50.6383 319.735 51.5373C307.943 52.2652 313.476 83.6635 320.08 102.856C326.686 122.045 340.032 145.697 346.29 154.931" stroke="white" stroke-linecap="round" stroke-linejoin="round"/>
<path d="M263.379 100.226C263.379 100.464 263.367 100.702 263.344 100.939C263.321 101.176 263.286 101.412 263.239 101.645C263.193 101.879 263.135 102.11 263.066 102.338C262.997 102.566 262.916 102.79 262.826 103.01C262.734 103.23 262.633 103.445 262.52 103.655C262.408 103.865 262.286 104.07 262.154 104.268C262.021 104.466 261.88 104.657 261.728 104.841C261.578 105.025 261.418 105.202 261.25 105.37C261.081 105.539 260.905 105.699 260.721 105.85C260.537 106.001 260.346 106.143 260.148 106.275C259.95 106.408 259.746 106.53 259.536 106.642C259.326 106.755 259.111 106.856 258.891 106.948C258.671 107.039 258.447 107.119 258.219 107.188C257.991 107.257 257.761 107.315 257.527 107.362C257.294 107.408 257.059 107.443 256.822 107.467C256.584 107.49 256.347 107.501 256.109 107.501C255.871 107.501 255.633 107.49 255.397 107.467C255.16 107.443 254.924 107.408 254.691 107.362C254.458 107.315 254.226 107.257 253.999 107.188C253.771 107.119 253.547 107.039 253.327 106.948C253.107 106.856 252.892 106.755 252.682 106.642C252.472 106.53 252.268 106.408 252.07 106.275C251.872 106.143 251.681 106.001 251.497 105.85C251.314 105.699 251.137 105.539 250.969 105.37C250.801 105.202 250.641 105.025 250.489 104.841C250.338 104.657 250.197 104.466 250.065 104.268C249.933 104.07 249.81 103.865 249.698 103.655C249.585 103.445 249.484 103.23 249.393 103.01C249.302 102.79 249.222 102.566 249.152 102.338C249.083 102.11 249.025 101.879 248.979 101.645C248.933 101.412 248.898 101.176 248.874 100.939C248.851 100.702 248.839 100.464 248.839 100.226C248.839 99.9875 248.851 99.75 248.874 99.5126C248.898 99.2757 248.933 99.0402 248.979 98.8066C249.025 98.5729 249.083 98.3418 249.152 98.1139C249.222 97.886 249.302 97.6618 249.393 97.4415C249.484 97.2212 249.585 97.006 249.698 96.7958C249.81 96.5857 249.933 96.3819 250.065 96.1838C250.197 95.9857 250.338 95.7946 250.489 95.6098C250.641 95.4257 250.801 95.2499 250.969 95.081C251.137 94.9127 251.314 94.7527 251.497 94.6016C251.681 94.4505 251.872 94.3089 252.07 94.1762C252.268 94.0442 252.472 93.9217 252.682 93.8093C252.892 93.6969 253.107 93.5953 253.327 93.5039C253.547 93.4125 253.771 93.3325 253.999 93.2633C254.226 93.1941 254.458 93.1363 254.691 93.0899C254.924 93.0436 255.16 93.0087 255.397 92.9852C255.633 92.9617 255.871 92.9503 256.109 92.9503C256.347 92.9503 256.584 92.9617 256.822 92.9852C257.059 93.0087 257.294 93.0436 257.527 93.0899C257.761 93.1363 257.991 93.1941 258.219 93.2633C258.447 93.3325 258.671 93.4125 258.891 93.5039C259.111 93.5953 259.326 93.6969 259.536 93.8093C259.746 93.9217 259.95 94.0442 260.148 94.1762C260.346 94.3089 260.537 94.4505 260.721 94.6016C260.905 94.7527 261.081 94.9127 261.25 95.081C261.418 95.2499 261.578 95.4257 261.728 95.6098C261.88 95.7946 262.021 95.9857 262.154 96.1838C262.286 96.3819 262.408 96.5857 262.52 96.7958C262.633 97.006 262.734 97.2212 262.826 97.4415C262.916 97.6618 262.997 97.886 263.066 98.1139C263.135 98.3418 263.193 98.5729 263.239 98.8066C263.286 99.0402 263.321 99.2757 263.344 99.5126C263.367 99.75 263.379 99.9875 263.379 100.226Z" fill="#9D8BC3"/>
<path d="M263.379 100.226C263.379 104.246 260.126 107.502 256.109 107.502C253.001 107.502 250.348 105.546 249.312 102.799C250.611 104.019 252.365 104.773 254.292 104.773C258.308 104.773 261.561 101.517 261.561 97.4975C261.561 96.5883 261.398 95.7242 261.089 94.9236C262.497 96.2518 263.379 98.1343 263.379 100.226Z" fill="#9D8BC3"/>
<path d="M242.478 109.32C242.478 109.559 242.467 109.797 242.443 110.033C242.42 110.271 242.385 110.506 242.338 110.739C242.292 110.974 242.234 111.204 242.165 111.432C242.096 111.66 242.016 111.884 241.925 112.105C241.834 112.325 241.732 112.54 241.62 112.75C241.507 112.96 241.385 113.164 241.253 113.362C241.121 113.56 240.979 113.752 240.828 113.936C240.677 114.12 240.517 114.297 240.349 114.465C240.18 114.633 240.004 114.793 239.82 114.944C239.636 115.096 239.445 115.238 239.247 115.37C239.05 115.502 238.845 115.624 238.636 115.737C238.425 115.849 238.21 115.951 237.991 116.042C237.77 116.134 237.547 116.214 237.319 116.283C237.091 116.352 236.86 116.41 236.627 116.456C236.393 116.502 236.158 116.537 235.921 116.561C235.684 116.584 235.447 116.596 235.208 116.596C234.97 116.596 234.733 116.584 234.496 116.561C234.259 116.537 234.024 116.502 233.79 116.456C233.556 116.41 233.326 116.352 233.098 116.283C232.87 116.214 232.647 116.134 232.426 116.042C232.207 115.951 231.991 115.849 231.782 115.737C231.572 115.624 231.368 115.502 231.17 115.37C230.972 115.238 230.781 115.096 230.597 114.944C230.412 114.793 230.237 114.633 230.068 114.465C229.899 114.297 229.74 114.12 229.589 113.936C229.438 113.752 229.296 113.56 229.164 113.362C229.032 113.164 228.91 112.96 228.797 112.75C228.685 112.54 228.583 112.325 228.492 112.105C228.401 111.884 228.321 111.66 228.252 111.432C228.183 111.204 228.125 110.974 228.079 110.739C228.032 110.506 227.997 110.271 227.974 110.033C227.95 109.797 227.939 109.559 227.939 109.32C227.939 109.082 227.95 108.844 227.974 108.607C227.997 108.37 228.032 108.134 228.079 107.901C228.125 107.667 228.183 107.436 228.252 107.208C228.321 106.98 228.401 106.756 228.492 106.536C228.583 106.316 228.685 106.101 228.797 105.891C228.91 105.681 229.032 105.476 229.164 105.278C229.296 105.08 229.438 104.889 229.589 104.705C229.74 104.521 229.899 104.344 230.068 104.176C230.237 104.007 230.412 103.848 230.597 103.696C230.781 103.545 230.972 103.403 231.17 103.271C231.368 103.138 231.572 103.016 231.782 102.904C231.991 102.791 232.207 102.69 232.426 102.599C232.647 102.507 232.87 102.427 233.098 102.358C233.326 102.289 233.556 102.231 233.79 102.184C234.024 102.138 234.259 102.103 234.496 102.079C234.733 102.057 234.97 102.045 235.208 102.045C235.447 102.045 235.684 102.057 235.921 102.079C236.158 102.103 236.393 102.138 236.627 102.184C236.86 102.231 237.091 102.289 237.319 102.358C237.547 102.427 237.77 102.507 237.991 102.599C238.21 102.69 238.425 102.791 238.636 102.904C238.845 103.016 239.05 103.138 239.247 103.271C239.445 103.403 239.636 103.545 239.82 103.696C240.004 103.848 240.18 104.007 240.349 104.176C240.517 104.344 240.677 104.521 240.828 104.705C240.979 104.889 241.121 105.08 241.253 105.278C241.385 105.476 241.507 105.681 241.62 105.891C241.732 106.101 241.834 106.316 241.925 106.536C242.016 106.756 242.096 106.98 242.165 107.208C242.234 107.436 242.292 107.667 242.338 107.901C242.385 108.134 242.42 108.37 242.443 108.607C242.467 108.844 242.478 109.082 242.478 109.32Z" fill="#9D8BC3"/>
<path d="M242.478 109.32C242.478 113.34 239.225 116.596 235.208 116.596C232.501 116.596 230.138 115.113 228.893 112.913C229.947 113.522 231.174 113.868 232.482 113.868C236.499 113.868 239.752 110.612 239.752 106.592C239.752 105.282 239.407 104.055 238.798 102.999C240.997 104.246 242.478 106.61 242.478 109.32Z" fill="#9D8BC3"/>
<path d="M263.379 72.033V81.3088L242.478 90.8672V81.1272L263.379 72.033Z" fill="#9D8BC3"/>
<path d="M263.379 72.033V81.3088L242.478 90.8672V87.3842L257.234 80.6377C258.763 79.9387 259.744 78.4105 259.744 76.728V73.6151L263.379 72.033Z" fill="#9D8BC3"/>
<mask id="mask0_1_172" style="mask-type:luminance" maskUnits="userSpaceOnUse" x="227" y="71" width="38" height="47">
<path d="M227 71H264.294V117.647H227V71Z" fill="white"/>
</mask>
<g mask="url(#mask0_1_172)">
<path d="M263.876 71.2724C263.62 71.1048 263.295 71.0756 263.016 71.1987L242.116 80.2936C241.784 80.4371 241.569 80.7647 241.569 81.1273V104.187C240.069 102.328 237.776 101.135 235.208 101.135C230.698 101.135 227.03 104.807 227.03 109.321C227.03 113.834 230.698 117.506 235.208 117.506C239.718 117.506 243.387 113.834 243.387 109.321V91.4558L262.469 82.7247V95.0925C260.969 93.2335 258.677 92.0405 256.108 92.0405C251.599 92.0405 247.93 95.7121 247.93 100.226C247.93 104.739 251.599 108.411 256.108 108.411C260.619 108.411 264.287 104.739 264.287 100.226V72.0323C264.287 71.7263 264.133 71.44 263.876 71.2724ZM235.208 115.687C231.701 115.687 228.847 112.83 228.847 109.321C228.847 105.81 231.701 102.954 235.208 102.954C238.715 102.954 241.569 105.81 241.569 109.321C241.569 112.83 238.715 115.687 235.208 115.687ZM256.108 106.592C252.602 106.592 249.747 103.736 249.747 100.226C249.747 96.7159 252.602 93.8595 256.108 93.8595C259.616 93.8595 262.469 96.7159 262.469 100.226C262.469 103.736 259.616 106.592 256.108 106.592ZM243.387 89.4559V81.7234L262.469 73.4202V80.7247L243.387 89.4559Z" fill="#9D8BC3"/>
</g>
<path d="M74.3792 99.2256C74.3792 99.4643 74.3671 99.7017 74.3436 99.9392C74.3208 100.176 74.2858 100.412 74.2388 100.645C74.1925 100.879 74.1347 101.11 74.0655 101.338C73.997 101.566 73.9163 101.79 73.8255 102.01C73.7341 102.23 73.6325 102.445 73.5201 102.655C73.4084 102.865 73.2859 103.07 73.1538 103.268C73.0211 103.466 72.8795 103.657 72.7284 103.841C72.578 104.025 72.418 104.202 72.2497 104.37C72.0815 104.539 71.905 104.699 71.7208 104.85C71.5367 105.001 71.3463 105.143 71.1482 105.275C70.9501 105.408 70.7463 105.53 70.5361 105.642C70.326 105.755 70.1114 105.856 69.8911 105.948C69.6714 106.039 69.4473 106.119 69.2193 106.188C68.9914 106.257 68.7609 106.315 68.5273 106.362C68.2937 106.408 68.0587 106.443 67.8219 106.467C67.5845 106.49 67.347 106.501 67.1089 106.501C66.8709 106.501 66.6334 106.49 66.3966 106.467C66.1598 106.443 65.9242 106.408 65.6912 106.362C65.4576 106.315 65.2265 106.257 64.9992 106.188C64.7712 106.119 64.5471 106.039 64.3275 105.948C64.1071 105.856 63.8919 105.755 63.6824 105.642C63.4722 105.53 63.2684 105.408 63.0704 105.275C62.8723 105.143 62.6812 105.001 62.497 104.85C62.3136 104.699 62.1371 104.539 61.9688 104.37C61.8006 104.202 61.6406 104.025 61.4895 103.841C61.3384 103.657 61.1968 103.466 61.0647 103.268C60.9327 103.07 60.8101 102.865 60.6977 102.655C60.5854 102.445 60.4838 102.23 60.393 102.01C60.3016 101.79 60.2216 101.566 60.1524 101.338C60.0832 101.11 60.0254 100.879 59.979 100.645C59.9327 100.412 59.8978 100.176 59.8743 99.9392C59.8514 99.7017 59.8394 99.4643 59.8394 99.2256C59.8394 98.9875 59.8514 98.75 59.8743 98.5126C59.8978 98.2757 59.9327 98.0402 59.979 97.8066C60.0254 97.5729 60.0832 97.3418 60.1524 97.1139C60.2216 96.886 60.3016 96.6618 60.393 96.4415C60.4838 96.2212 60.5854 96.006 60.6977 95.7958C60.8101 95.5857 60.9327 95.3819 61.0647 95.1838C61.1968 94.9857 61.3384 94.7946 61.4895 94.6098C61.6406 94.4257 61.8006 94.2499 61.9688 94.081C62.1371 93.9127 62.3136 93.7527 62.497 93.6016C62.6812 93.4505 62.8723 93.3089 63.0704 93.1762C63.2684 93.0442 63.4722 92.9217 63.6824 92.8093C63.8919 92.6969 64.1071 92.5953 64.3275 92.5039C64.5471 92.4125 64.7712 92.3325 64.9992 92.2633C65.2265 92.1941 65.4576 92.1363 65.6912 92.0899C65.9242 92.0436 66.1598 92.0087 66.3966 91.9852C66.6334 91.9617 66.8709 91.9503 67.1089 91.9503C67.347 91.9503 67.5845 91.9617 67.8219 91.9852C68.0587 92.0087 68.2937 92.0436 68.5273 92.0899C68.7609 92.1363 68.9914 92.1941 69.2193 92.2633C69.4473 92.3325 69.6714 92.4125 69.8911 92.5039C70.1114 92.5953 70.326 92.6969 70.5361 92.8093C70.7463 92.9217 70.9501 93.0442 71.1482 93.1762C71.3463 93.3089 71.5367 93.4505 71.7208 93.6016C71.905 93.7527 72.0815 93.9127 72.2497 94.081C72.418 94.2499 72.578 94.4257 72.7284 94.6098C72.8795 94.7946 73.0211 94.9857 73.1538 95.1838C73.2859 95.3819 73.4084 95.5857 73.5201 95.7958C73.6325 96.006 73.7341 96.2212 73.8255 96.4415C73.9163 96.6618 73.997 96.886 74.0655 97.1139C74.1347 97.3418 74.1925 97.5729 74.2388 97.8066C74.2858 98.0402 74.3208 98.2757 74.3436 98.5126C74.3671 98.75 74.3792 98.9875 74.3792 99.2256Z" fill="#9D8BC3"/>
<path d="M74.3792 99.2256C74.3792 103.246 71.126 106.502 67.109 106.502C64.0012 106.502 61.3479 104.546 60.3118 101.799C61.6114 103.019 63.365 103.773 65.2919 103.773C69.3083 103.773 72.5615 100.517 72.5615 96.4975C72.5615 95.5883 72.3977 94.7242 72.0891 93.9236C73.4973 95.2518 74.3792 97.1343 74.3792 99.2256Z" fill="#9D8BC3"/>
<path d="M53.478 108.32C53.478 108.559 53.4666 108.797 53.4431 109.033C53.4196 109.271 53.3847 109.506 53.3383 109.739C53.292 109.974 53.2342 110.204 53.165 110.432C53.0958 110.66 53.0158 110.884 52.925 111.105C52.8336 111.325 52.732 111.54 52.6196 111.75C52.5073 111.96 52.3854 112.164 52.2533 112.362C52.1206 112.56 51.979 112.752 51.8279 112.936C51.6768 113.12 51.5174 113.297 51.3492 113.465C51.1803 113.633 51.0044 113.793 50.8203 113.944C50.6362 114.096 50.4451 114.238 50.247 114.37C50.0496 114.502 49.8451 114.624 49.6356 114.737C49.4255 114.849 49.2102 114.951 48.9906 115.042C48.7702 115.134 48.5468 115.214 48.3188 115.283C48.0909 115.352 47.8604 115.41 47.6268 115.456C47.3931 115.502 47.1582 115.537 46.9208 115.561C46.684 115.584 46.4465 115.596 46.2084 115.596C45.9703 115.596 45.7329 115.584 45.4961 115.561C45.2593 115.537 45.0237 115.502 44.7901 115.456C44.5564 115.41 44.326 115.352 44.098 115.283C43.8701 115.214 43.6466 115.134 43.4263 115.042C43.2066 114.951 42.9914 114.849 42.7819 114.737C42.5717 114.624 42.3679 114.502 42.1698 114.37C41.9718 114.238 41.7806 114.096 41.5965 113.944C41.4124 113.793 41.2365 113.633 41.0683 113.465C40.8994 113.297 40.74 113.12 40.5889 112.936C40.4378 112.752 40.2963 112.56 40.1642 112.362C40.0315 112.164 39.9096 111.96 39.7972 111.75C39.6848 111.54 39.5833 111.325 39.4925 111.105C39.401 110.884 39.3211 110.66 39.2518 110.432C39.1826 110.204 39.1249 109.974 39.0785 109.739C39.0322 109.506 38.9973 109.271 38.9738 109.033C38.9503 108.797 38.9388 108.559 38.9388 108.32C38.9388 108.082 38.9503 107.844 38.9738 107.607C38.9973 107.37 39.0322 107.134 39.0785 106.901C39.1249 106.667 39.1826 106.436 39.2518 106.208C39.3211 105.98 39.401 105.756 39.4925 105.536C39.5833 105.316 39.6848 105.101 39.7972 104.891C39.9096 104.681 40.0315 104.476 40.1642 104.278C40.2963 104.08 40.4378 103.889 40.5889 103.705C40.74 103.521 40.8994 103.344 41.0683 103.176C41.2365 103.007 41.4124 102.848 41.5965 102.696C41.7806 102.545 41.9718 102.403 42.1698 102.271C42.3679 102.138 42.5717 102.016 42.7819 101.904C42.9914 101.791 43.2066 101.69 43.4263 101.599C43.6466 101.507 43.8701 101.427 44.098 101.358C44.326 101.289 44.5564 101.231 44.7901 101.184C45.0237 101.138 45.2593 101.103 45.4961 101.079C45.7329 101.057 45.9703 101.045 46.2084 101.045C46.4465 101.045 46.684 101.057 46.9208 101.079C47.1582 101.103 47.3931 101.138 47.6268 101.184C47.8604 101.231 48.0909 101.289 48.3188 101.358C48.5468 101.427 48.7702 101.507 48.9906 101.599C49.2102 101.69 49.4255 101.791 49.6356 101.904C49.8451 102.016 50.0496 102.138 50.247 102.271C50.4451 102.403 50.6362 102.545 50.8203 102.696C51.0044 102.848 51.1803 103.007 51.3492 103.176C51.5174 103.344 51.6768 103.521 51.8279 103.705C51.979 103.889 52.1206 104.08 52.2533 104.278C52.3854 104.476 52.5073 104.681 52.6196 104.891C52.732 105.101 52.8336 105.316 52.925 105.536C53.0158 105.756 53.0958 105.98 53.165 106.208C53.2342 106.436 53.292 106.667 53.3383 106.901C53.3847 107.134 53.4196 107.37 53.4431 107.607C53.4666 107.844 53.478 108.082 53.478 108.32Z" fill="#9D8BC3"/>
<path d="M53.478 108.32C53.478 112.34 50.2248 115.596 46.2084 115.596C43.5006 115.596 41.1381 114.113 39.8931 111.913C40.947 112.522 42.1736 112.868 43.4821 112.868C47.4991 112.868 50.7517 109.612 50.7517 105.592C50.7517 104.282 50.407 103.055 49.7981 101.999C51.9968 103.246 53.478 105.61 53.478 108.32Z" fill="#9D8BC3"/>
<path d="M74.3792 71.033V80.3088L53.4784 89.8672V80.1272L74.3792 71.033Z" fill="#9D8BC3"/>
<path d="M74.3792 71.033V80.3088L53.4784 89.8672V86.3842L68.2341 79.6377C69.7629 78.9387 70.7438 77.4105 70.7438 75.728V72.6151L74.3792 71.033Z" fill="#9D8BC3"/>
<mask id="mask1_1_172" style="mask-type:luminance" maskUnits="userSpaceOnUse" x="38" y="70" width="38" height="47">
<path d="M38 70H75.2939V116.647H38V70Z" fill="white"/>
</mask>
<g mask="url(#mask1_1_172)">
<path d="M74.8764 70.2724C74.6199 70.1048 74.2948 70.0756 74.0161 70.1987L53.1158 79.2936C52.7838 79.4371 52.5692 79.7647 52.5692 80.1273V103.187C51.0689 101.328 48.7763 100.135 46.2082 100.135C41.6985 100.135 38.03 103.807 38.03 108.321C38.03 112.834 41.6985 116.506 46.2082 116.506C50.7178 116.506 54.3869 112.834 54.3869 108.321V90.4558L73.4694 81.7247V94.0925C71.9692 92.2335 69.6765 91.0405 67.1084 91.0405C62.5987 91.0405 58.9302 94.7121 58.9302 99.2256C58.9302 103.739 62.5987 107.411 67.1084 107.411C71.6187 107.411 75.2871 103.739 75.2871 99.2256V71.0323C75.2871 70.7263 75.1328 70.44 74.8764 70.2724ZM46.2082 114.687C42.701 114.687 39.8471 111.83 39.8471 108.321C39.8471 104.81 42.701 101.954 46.2082 101.954C49.7153 101.954 52.5692 104.81 52.5692 108.321C52.5692 111.83 49.7153 114.687 46.2082 114.687ZM67.1084 105.592C63.6018 105.592 60.7473 102.736 60.7473 99.2256C60.7473 95.7159 63.6018 92.8595 67.1084 92.8595C70.6155 92.8595 73.4694 95.7159 73.4694 99.2256C73.4694 102.736 70.6155 105.592 67.1084 105.592ZM54.3869 88.4559V80.7234L73.4694 72.4202V79.7247L54.3869 88.4559Z" fill="#9D8BC3"/>
</g>
<path d="M176.122 25.5747C176.122 25.7264 176.114 25.8773 176.099 26.0282C176.084 26.1787 176.062 26.3284 176.032 26.4769C176.003 26.6254 175.966 26.7723 175.922 26.9172C175.879 27.062 175.827 27.2045 175.77 27.3445C175.712 27.4841 175.647 27.6209 175.576 27.7545C175.505 27.888 175.427 28.018 175.343 28.1438C175.258 28.2697 175.168 28.3912 175.072 28.5082C174.977 28.6252 174.875 28.7374 174.768 28.8444C174.661 28.9517 174.549 29.0534 174.432 29.1494C174.315 29.2455 174.194 29.3354 174.068 29.4198C173.942 29.5037 173.813 29.5816 173.679 29.653C173.546 29.7244 173.409 29.789 173.269 29.8471C173.129 29.9048 172.987 29.9556 172.842 29.9996C172.697 30.0436 172.551 30.0803 172.402 30.1102C172.254 30.1396 172.105 30.1618 171.954 30.1768C171.803 30.1917 171.652 30.199 171.501 30.199C171.35 30.199 171.199 30.1917 171.048 30.1768C170.898 30.1618 170.748 30.1396 170.6 30.1102C170.451 30.0803 170.304 30.0436 170.16 29.9996C170.015 29.9556 169.873 29.9048 169.733 29.8471C169.593 29.789 169.456 29.7244 169.323 29.653C169.19 29.5816 169.06 29.5037 168.934 29.4198C168.808 29.3354 168.687 29.2455 168.57 29.1494C168.453 29.0534 168.341 28.9517 168.234 28.8444C168.127 28.7374 168.025 28.6252 167.929 28.5082C167.833 28.3912 167.743 28.2697 167.659 28.1438C167.575 28.018 167.498 27.888 167.426 27.7545C167.355 27.6209 167.29 27.4841 167.232 27.3445C167.174 27.2045 167.124 27.062 167.08 26.9172C167.036 26.7723 166.999 26.6254 166.969 26.4769C166.94 26.3284 166.918 26.1787 166.903 26.0282C166.888 25.8773 166.881 25.7264 166.881 25.5747C166.881 25.4233 166.888 25.2724 166.903 25.1215C166.918 24.971 166.94 24.8213 166.969 24.6728C166.999 24.5243 167.036 24.3774 167.08 24.2326C167.124 24.0877 167.174 23.9452 167.232 23.8052C167.29 23.6652 167.355 23.5284 167.426 23.3949C167.498 23.2613 167.575 23.1318 167.659 23.0059C167.743 22.88 167.833 22.7585 167.929 22.6411C168.025 22.5241 168.127 22.4123 168.234 22.3049C168.341 22.198 168.453 22.0963 168.57 22.0003C168.687 21.9043 168.808 21.8143 168.934 21.7299C169.06 21.646 169.19 21.5681 169.323 21.4967C169.456 21.4253 169.593 21.3607 169.733 21.3026C169.873 21.2445 170.015 21.1937 170.16 21.1497C170.304 21.1057 170.451 21.069 170.6 21.0395C170.748 21.0101 170.898 20.9879 171.048 20.9729C171.199 20.958 171.35 20.9507 171.501 20.9507C171.652 20.9507 171.803 20.958 171.954 20.9729C172.105 20.9879 172.254 21.0101 172.402 21.0395C172.551 21.069 172.697 21.1057 172.842 21.1497C172.987 21.1937 173.129 21.2445 173.269 21.3026C173.409 21.3607 173.546 21.4253 173.679 21.4967C173.813 21.5681 173.942 21.646 174.068 21.7299C174.194 21.8143 174.315 21.9043 174.432 22.0003C174.549 22.0963 174.661 22.198 174.768 22.3049C174.875 22.4123 174.977 22.5241 175.072 22.6411C175.168 22.7585 175.258 22.88 175.343 23.0059C175.427 23.1318 175.505 23.2613 175.576 23.3949C175.647 23.5284 175.712 23.6652 175.77 23.8052C175.827 23.9452 175.879 24.0877 175.922 24.2326C175.966 24.3774 176.003 24.5243 176.032 24.6728C176.062 24.8213 176.084 24.971 176.099 25.1215C176.114 25.2724 176.122 25.4233 176.122 25.5747Z" fill="#9D8BC3"/>
<path d="M176.122 25.5745C176.122 28.1296 174.054 30.1989 171.501 30.1989C169.526 30.1989 167.84 28.956 167.181 27.2104C168.007 27.9852 169.122 28.4649 170.346 28.4649C172.899 28.4649 174.966 26.3953 174.966 23.8406C174.966 23.2628 174.862 22.7136 174.666 22.2048C175.561 23.0489 176.122 24.2454 176.122 25.5745Z" fill="#9D8BC3"/>
<path d="M162.838 31.355C162.838 31.5063 162.83 31.6576 162.815 31.8081C162.8 31.959 162.778 32.1083 162.749 32.2568C162.719 32.4057 162.683 32.5522 162.639 32.6971C162.595 32.8419 162.544 32.9844 162.486 33.1244C162.428 33.2644 162.363 33.4012 162.292 33.5348C162.221 33.6683 162.143 33.7979 162.059 33.9238C161.975 34.0497 161.885 34.1715 161.789 34.2885C161.693 34.4056 161.592 34.5177 161.485 34.6247C161.377 34.7316 161.265 34.8333 161.148 34.9293C161.031 35.0254 160.91 35.1157 160.784 35.1997C160.659 35.284 160.529 35.3615 160.396 35.4329C160.262 35.5043 160.125 35.5689 159.986 35.627C159.846 35.6851 159.703 35.736 159.559 35.7799C159.414 35.8239 159.267 35.8606 159.119 35.8901C158.97 35.9196 158.821 35.9417 158.67 35.9567C158.52 35.9716 158.369 35.9789 158.217 35.9789C158.066 35.9789 157.915 35.9716 157.765 35.9567C157.614 35.9417 157.464 35.9196 157.316 35.8901C157.167 35.8606 157.021 35.8239 156.876 35.7799C156.731 35.736 156.589 35.6851 156.449 35.627C156.309 35.5689 156.173 35.5043 156.04 35.4329C155.906 35.3615 155.776 35.284 155.651 35.1997C155.525 35.1157 155.403 35.0254 155.286 34.9293C155.169 34.8333 155.057 34.7316 154.95 34.6247C154.843 34.5177 154.742 34.4056 154.646 34.2885C154.55 34.1715 154.46 34.0497 154.376 33.9238C154.291 33.7979 154.214 33.6683 154.143 33.5348C154.071 33.4012 154.007 33.2644 153.949 33.1244C153.891 32.9844 153.84 32.8419 153.796 32.6971C153.752 32.5522 153.715 32.4057 153.686 32.2568C153.656 32.1083 153.634 31.959 153.619 31.8081C153.604 31.6576 153.597 31.5063 153.597 31.355C153.597 31.2032 153.604 31.0523 153.619 30.9018C153.634 30.7509 153.656 30.6012 153.686 30.4527C153.715 30.3042 153.752 30.1573 153.796 30.0125C153.84 29.8676 153.891 29.7252 153.949 29.5851C154.007 29.4455 154.071 29.3087 154.143 29.1752C154.214 29.0416 154.291 28.9117 154.376 28.7858C154.46 28.6599 154.55 28.5384 154.646 28.4214C154.742 28.3044 154.843 28.1922 154.95 28.0853C155.057 27.9779 155.169 27.8766 155.286 27.7802C155.403 27.6842 155.525 27.5942 155.651 27.5098C155.776 27.4259 155.906 27.348 156.04 27.2766C156.173 27.2052 156.309 27.1406 156.449 27.0829C156.589 27.0248 156.731 26.974 156.876 26.93C157.021 26.886 157.167 26.8493 157.316 26.8194C157.464 26.79 157.614 26.7678 157.765 26.7528C157.915 26.7383 158.066 26.7307 158.217 26.7307C158.369 26.7307 158.52 26.7383 158.67 26.7528C158.821 26.7678 158.97 26.79 159.119 26.8194C159.267 26.8493 159.414 26.886 159.559 26.93C159.703 26.974 159.846 27.0248 159.986 27.0829C160.125 27.1406 160.262 27.2052 160.396 27.2766C160.529 27.348 160.659 27.4259 160.784 27.5098C160.91 27.5942 161.031 27.6842 161.148 27.7802C161.265 27.8766 161.377 27.9779 161.485 28.0853C161.592 28.1922 161.693 28.3044 161.789 28.4214C161.885 28.5384 161.975 28.6599 162.059 28.7858C162.143 28.9117 162.221 29.0416 162.292 29.1752C162.363 29.3087 162.428 29.4455 162.486 29.5851C162.544 29.7252 162.595 29.8676 162.639 30.0125C162.683 30.1573 162.719 30.3042 162.749 30.4527C162.778 30.6012 162.8 30.7509 162.815 30.9018C162.83 31.0523 162.838 31.2032 162.838 31.355Z" fill="#9D8BC3"/>
<path d="M162.837 31.3551C162.837 33.9098 160.769 35.979 158.217 35.979C156.496 35.979 154.994 35.0368 154.203 33.6382C154.873 34.0256 155.652 34.2451 156.484 34.2451C159.037 34.2451 161.104 32.1759 161.104 29.6208C161.104 28.7888 160.885 28.0084 160.498 27.3377C161.896 28.1298 162.837 29.6325 162.837 31.3551Z" fill="#9D8BC3"/>
<path d="M176.121 7.65637V13.5518L162.838 19.6267V13.4364L176.121 7.65637Z" fill="#9D8BC3"/>
<path d="M176.121 7.65637V13.5518L162.838 19.6267V17.413L172.216 13.1252C173.187 12.681 173.811 11.7097 173.811 10.6404V8.66194L176.121 7.65637Z" fill="#9D8BC3"/>
<mask id="mask2_1_172" style="mask-type:luminance" maskUnits="userSpaceOnUse" x="153" y="7" width="24" height="30">
<path d="M153 7H176.703V36.6472H153V7Z" fill="white"/>
</mask>
<g mask="url(#mask2_1_172)">
<path d="M176.436 7.17318C176.273 7.06665 176.066 7.04809 175.889 7.12637L162.606 12.9068C162.395 12.998 162.258 13.2062 162.258 13.4366V28.0923C161.305 26.9112 159.848 26.153 158.215 26.153C155.349 26.153 153.018 28.4866 153.018 31.3552C153.018 34.2238 155.349 36.5573 158.215 36.5573C161.082 36.5573 163.414 34.2238 163.414 31.3552V20.001L175.542 14.4518V22.3123C174.588 21.1308 173.131 20.3726 171.499 20.3726C168.633 20.3726 166.301 22.7062 166.301 25.5748C166.301 28.4434 168.633 30.7769 171.499 30.7769C174.365 30.7769 176.697 28.4434 176.697 25.5748V7.65619C176.697 7.46169 176.599 7.27971 176.436 7.17318ZM158.215 35.4013C155.986 35.4013 154.173 33.5858 154.173 31.3552C154.173 29.1241 155.986 27.3091 158.215 27.3091C160.444 27.3091 162.258 29.1241 162.258 31.3552C162.258 33.5858 160.444 35.4013 158.215 35.4013ZM171.499 29.6209C169.27 29.6209 167.456 27.8058 167.456 25.5748C167.456 23.3441 169.27 21.5287 171.499 21.5287C173.728 21.5287 175.542 23.3441 175.542 25.5748C175.542 27.8058 173.728 29.6209 171.499 29.6209ZM163.414 18.7299V13.8155L175.542 8.53828V13.1807L163.414 18.7299Z" fill="#9D8BC3"/>
</g>
<ellipse cx="159" cy="111" rx="4" ry="6" fill="#9D8BC3"/>
<ellipse cx="191" cy="111" rx="4" ry="6" fill="#9D8BC3"/>
<ellipse cx="158.5" cy="111" rx="3.5" ry="6" fill="#5B5F97"/>
<ellipse cx="191.5" cy="111" rx="3.5" ry="6" fill="#5B5F97"/>
</g>
<defs>
<clipPath id="clip0_1_172">
<rect width="350" height="227" fill="white"/>
</clipPath>
</defs>
</svg>
