<svg width="350" height="227" viewBox="0 0 350 227" fill="none" xmlns="http://www.w3.org/2000/svg">
<path d="M36.9025 53.9978L42.4775 39.9664C42.7053 39.3826 43.2714 39 43.9105 39C44.5076 39 45.0029 39.3273 45.244 39.8514C45.485 40.3777 45.5138 41.0146 45.3435 41.7532C45.5005 41.7952 46.2369 42.0363 46.677 42.8036C47.0883 43.498 47.117 44.4202 46.792 45.5281C46.876 45.5834 47.3028 45.8952 47.6146 46.5055C47.9264 47.1446 48.1962 48.2371 47.6279 49.8824C46.6482 52.7351 46.0821 54.0973 46.0666 54.1106L46.0533 54.1261L36.9025 53.9978Z" fill="#A692CA"/>
<path opacity="0.2" d="M44.5341 48.7899C42.42 49.8403 40.2506 50.3932 38.3068 50.4639L36.9025 53.9978L46.0666 54.1393L46.0821 54.126C46.0821 54.1105 46.6637 52.7483 47.6434 49.8978C48.152 48.4206 47.9972 47.4011 47.7274 46.7333C46.792 47.4984 45.7261 48.195 44.5341 48.7899Z" fill="#1D0549"/>
<path d="M34.2617 53.4005H29.3104C28.9986 53.4005 28.8858 53.814 29.1401 53.9688L34.2617 57.2881V53.4005Z" fill="#231F20"/>
<path d="M45.3421 41.7663L40.6318 53.6858" stroke="#252525" stroke-linecap="round" stroke-linejoin="round"/>
<path d="M46.8054 45.5121L43.6984 53.3582" stroke="#252525" stroke-linecap="round" stroke-linejoin="round"/>
<path d="M43.5992 62.0142C40.6911 62.0142 38.1215 60.0283 36.8322 58.8496C36.2772 58.3388 35.5828 57.9695 34.8442 57.8147L33.1989 57.4742C31.8942 57.2044 31.014 55.9991 31.1423 54.6789C31.2683 53.33 32.3895 52.3238 33.7385 52.3238L58.6412 52.2176V52.2132C61.3944 52.1977 59.5191 54.763 58.838 55.7139C58.1569 56.6515 57.0644 57.2176 55.9278 57.2176C55.5607 57.2176 55.1914 57.1623 54.8221 57.0473L53.4178 56.6073C53.2321 56.552 53.0485 56.5232 52.865 56.5232C52.3674 56.5232 51.8698 56.7355 51.5293 57.0916C51.317 57.3171 51.0759 57.5869 50.8216 57.8855C49.3886 59.5308 47.217 62.0142 43.5992 62.0142Z" fill="#E9D7EF"/>
<path d="M56.0827 54.7075L59.0482 55.1033" stroke="#262228" stroke-linecap="round" stroke-linejoin="round"/>
<path d="M33.5519 55.1897C33.9455 55.1897 34.2618 54.8713 34.2618 54.4799C34.2618 54.0885 33.9455 53.77 33.5519 53.77C33.1605 53.77 32.8442 54.0885 32.8442 54.4799C32.8442 54.8713 33.1605 55.1897 33.5519 55.1897Z" fill="#231F20"/>
<path d="M43.5982 62.0142C40.6901 62.0142 38.1072 60.0284 36.8312 58.8497C36.7737 58.7944 36.703 58.7369 36.6322 58.6794L36.6035 58.6661L36.6322 58.6374C36.8158 58.4671 37.0015 58.3101 37.1851 58.1686C38.6888 56.9921 40.5044 56.3663 42.4062 56.3663C45.0444 56.3663 47.4858 57.5582 49.1178 59.6458L49.1311 59.6591L49.1178 59.6723C47.415 61.2491 45.6127 62.0142 43.5982 62.0142Z" fill="#CECECE"/>
<path d="M44.1486 58.2546C42.3463 58.2546 40.617 57.6022 39.268 56.3948C38.8567 56.041 38.6157 55.5434 38.5869 54.9905C38.5582 54.4377 38.7284 53.9268 39.0978 53.5155C39.1552 53.4448 39.226 53.3873 39.2813 53.3298L51.0018 43.1728C51.2848 42.9295 51.6409 42.788 52.0102 42.788C52.4503 42.788 52.8616 42.9737 53.1579 43.2855C53.4277 43.5841 53.5692 43.9666 53.556 44.378C53.5272 44.9728 53.2574 45.5544 52.7466 46.136C52.8616 46.251 53.4144 46.8172 53.4564 47.7128C53.4985 48.5354 53.1026 49.3713 52.2932 50.2227C52.406 50.4372 53.3149 52.3368 51.0018 54.5372L49.1707 56.2532C47.824 57.5447 46.0372 58.2546 44.1486 58.2546Z" fill="#A692CA"/>
<path d="M52.7488 46.1516L45.9952 52.0406" stroke="#252525" stroke-linecap="round" stroke-linejoin="round"/>
<path d="M52.3102 50.2095L48.5375 53.5001" stroke="#252525" stroke-linecap="round" stroke-linejoin="round"/>
<path d="M248.981 199.905L306.497 176.141V226.09H248.981V199.905Z" fill="#CECECE"/>
<path d="M306.498 176.141L287.188 184.12V226.09H306.498V176.141Z" fill="white"/>
<path d="M298.582 203.407H295.124V209.635H298.582V203.407Z" fill="#CECECE"/>
<path d="M298.582 192.835H295.124V199.062H298.582V192.835Z" fill="#CECECE"/>
<path d="M298.582 214.002H295.124V220.229H298.582V214.002Z" fill="#CECECE"/>
<path d="M279.122 203.451H275.663V209.679H279.122V203.451Z" fill="white"/>
<path d="M269.241 203.451H265.78V209.679H269.241V203.451Z" fill="white"/>
<path d="M259.359 203.365H255.901V209.593H259.359V203.365Z" fill="white"/>
<path d="M279.122 214.047H275.663V220.274H279.122V214.047Z" fill="white"/>
<path d="M269.241 214.047H265.78V220.274H269.241V214.047Z" fill="white"/>
<path d="M259.359 213.96H255.901V220.188H259.359V213.96Z" fill="white"/>
<path d="M261.283 152.14H216.958V226.09H261.283V152.14Z" fill="#CECECE"/>
<path d="M261.283 152.14H239.315V226.09H261.283V152.14Z" fill="#CECECE"/>
<path d="M216.958 152.14H261.283L239.315 179.601L216.958 152.14Z" fill="white"/>
<path d="M233.476 226.09V182.844L222.817 169.763V226.09H233.476Z" fill="white"/>
<path d="M244.982 226.09V182.844L255.641 169.763V226.09H244.982Z" fill="white"/>
<path d="M233.452 188.899H205.104V226.09H233.452V188.899Z" fill="#CECECE"/>
<path d="M208.631 188.899H163.419V226.09H208.631V188.899Z" fill="white"/>
<path d="M203.314 194.197H168.738V197.655H203.314V194.197Z" fill="#CECECE"/>
<path d="M203.314 202.112H168.738V205.57H203.314V202.112Z" fill="#CECECE"/>
<path d="M203.314 210.002H168.738V213.463H203.314V210.002Z" fill="#CECECE"/>
<path d="M203.314 217.916H168.738V221.377H203.314V217.916Z" fill="#CECECE"/>
<path d="M228.285 194.197H214.449V197.655H228.285V194.197Z" fill="white"/>
<path d="M228.285 202.112H214.449V205.57H228.285V202.112Z" fill="white"/>
<path d="M228.285 210.002H214.449V213.463H228.285V210.002Z" fill="white"/>
<path d="M228.285 217.916H214.449V221.377H228.285V217.916Z" fill="white"/>
<path d="M163.397 165.61H134.704V226.09H163.397V165.61Z" fill="#CECECE"/>
<path d="M129.428 152.14H153.515L163.528 165.61H119.417L129.428 152.14Z" fill="white"/>
<path d="M129.428 152.14L138.163 165.61V226.09H119.417V165.61L129.428 152.14Z" fill="#CECECE"/>
<path d="M156.932 172.465H153.473V179.818H156.932V172.465Z" fill="#E4E4E4"/>
<path d="M148.066 172.466H144.607V179.819H148.066V172.466Z" fill="#E4E4E4"/>
<path d="M156.932 185.547H153.473V192.898H156.932V185.547Z" fill="#E4E4E4"/>
<path d="M148.066 185.548H144.607V192.899H148.066V185.548Z" fill="#E4E4E4"/>
<path d="M156.932 198.628H153.473V205.981H156.932V198.628Z" fill="#E4E4E4"/>
<path d="M148.066 198.629H144.607V205.982H148.066V198.629Z" fill="#E4E4E4"/>
<path d="M156.932 213.549H153.473V226.09H156.932V213.549Z" fill="#E4E4E4"/>
<path d="M148.066 213.55H144.607V226.09H148.066V213.55Z" fill="#E4E4E4"/>
<path d="M94.9842 118.624H86.9833V169.221H94.9842V118.624Z" fill="#CECECE"/>
<path d="M91.0921 118.624H86.9833V169.221H91.0921V118.624Z" fill="white"/>
<path d="M101.533 129.87H80.4299V180.467H101.533V129.87Z" fill="#CECECE"/>
<path d="M89.3596 129.87H80.4299V180.467H89.3596V129.87Z" fill="white"/>
<path d="M109.686 141.329H84.9054V225.874H109.686V141.329Z" fill="#CECECE"/>
<path d="M94.1185 146.519H90.6576V225.874H94.1185V146.519Z" fill="white"/>
<path d="M105.579 146.519H102.118V225.874H105.579V146.519Z" fill="white"/>
<path d="M99.847 146.519H96.3861V225.874H99.847V146.519Z" fill="white"/>
<path d="M86.5473 141.329H72.2771V225.874H86.5473V141.329Z" fill="white"/>
<path d="M81.1454 146.519H77.6845V225.874H81.1454V146.519Z" fill="#CECECE"/>
<path d="M127.957 179.602H69.6624V226.09H127.957V179.602Z" fill="#CECECE"/>
<path d="M85.1874 186.953C87.7173 186.953 89.7717 189.007 89.7717 191.537V198.845H80.6253V191.537C80.6032 189.007 82.6576 186.953 85.1874 186.953Z" fill="#E4E4E4"/>
<path d="M89.7479 204.253H80.6015V226.09H89.7479V204.253Z" fill="#E4E4E4"/>
<path d="M100.064 186.953C102.594 186.953 104.646 189.007 104.646 191.537V198.845H95.5V191.537C95.4801 189.007 97.5345 186.953 100.064 186.953Z" fill="#E4E4E4"/>
<path d="M104.627 204.253H95.481V226.09H104.627V204.253Z" fill="#E4E4E4"/>
<path d="M114.94 186.953C117.47 186.953 119.524 189.007 119.524 191.537V198.845H110.378V191.537C110.378 189.007 112.43 186.953 114.94 186.953Z" fill="#E4E4E4"/>
<path d="M119.524 204.253H110.378V226.09H119.524V204.253Z" fill="#E4E4E4"/>
<path d="M72.2781 179.602H46.9796V226.09H72.2781V179.602Z" fill="white"/>
<path d="M59.0224 187.17C56.4926 187.17 54.4382 189.224 54.4382 191.754V199.063H63.5846V191.754C63.5846 189.224 61.5302 187.17 59.0224 187.17Z" fill="#CECECE"/>
<path d="M63.5846 204.253H54.4382V226.09H63.5846V204.253Z" fill="#CECECE"/>
<path d="M131.309 176.856H43.7351V180.1H131.309V176.856Z" fill="#E4E4E4"/>
<path d="M74.4406 176.856H43.7351V180.1H74.4406V176.856Z" fill="#CECECE"/>
<path d="M45.4442 167.133H42.0784V225.93H45.4442V167.133Z" fill="#A692CA"/>
<path opacity="0.3" d="M42.0784 175.346C42.5738 175.441 43.0957 175.499 43.6198 175.499C44.2478 175.499 44.8648 175.423 45.453 175.28V168.588C44.5419 168.92 43.5623 169.044 42.5539 168.92C42.3925 168.902 42.2421 168.873 42.0784 168.844V175.346Z" fill="#7F6CA0"/>
<path d="M58.3836 154.338C56.9572 150.087 51.9373 147.949 47.1761 149.537C45.6724 146.932 43.012 145.355 40.208 145.706C36.4419 146.182 33.7993 149.983 34.1045 154.329C29.7303 155.392 26.9749 159.47 27.9346 163.435C28.828 167.104 32.583 169.386 36.6034 168.873C38.0585 171.326 40.6547 172.96 43.6091 172.96C47.9081 172.96 51.4441 169.499 51.8334 165.089C51.9948 165.041 52.1562 164.994 52.3265 164.937C57.1098 163.34 59.8188 158.597 58.3836 154.338Z" fill="#A692CA"/>
<path opacity="0.3" d="M50.5768 159.528C49.8073 163.816 46.3199 166.847 42.5538 166.392C39.7498 166.049 37.5538 163.862 36.7356 160.972C33.591 161.21 30.7095 159.994 28.9139 157.96C27.8767 159.576 27.4764 161.513 27.9431 163.426C28.8365 167.095 32.5914 169.377 36.614 168.862C38.0669 171.317 40.6631 172.951 43.6197 172.951C47.9165 172.951 51.4526 169.49 51.8418 165.08C52.0032 165.032 52.1646 164.985 52.3371 164.928C57.0895 163.331 59.7984 158.605 58.4119 154.366C57.3548 157.389 54.2367 159.556 50.5768 159.528Z" fill="#9E9E9E"/>
<path d="M36.6143 168.882C37.6493 168.683 38.6289 168.294 39.5135 167.723" stroke="#666666" stroke-linecap="round" stroke-linejoin="round"/>
<path d="M34.1035 154.328C34.1698 155.116 34.3976 155.887 34.758 156.599" stroke="#666666" stroke-linecap="round" stroke-linejoin="round"/>
<path d="M47.1758 149.536C45.4067 150.041 44.6459 151.087 44.6459 151.087" stroke="#666666" stroke-linecap="round" stroke-linejoin="round"/>
<path d="M51.8433 165.098C52.1573 162.968 51.8433 161.818 51.8433 161.818" stroke="#666666" stroke-linecap="round" stroke-linejoin="round"/>
<path d="M274.108 127.706H267.231V225.729H274.108V127.706Z" fill="#A692CA"/>
<path opacity="0.3" d="M267.231 127.706H274.082V145.851L267.231 141.348V127.706Z" fill="#55515D"/>
<path d="M287.782 127.174C286.579 126.895 285.378 126.672 284.203 126.504C286.271 125.245 288.452 123.792 290.606 122.143C299.916 115.04 305.871 107.156 303.858 104.529C301.901 101.983 293.177 105.338 284.119 112.076C287.585 101.479 288.034 92.282 285.013 91.2471C282.777 90.4642 279.254 94.4072 276.01 100.78C275.059 93.5956 272.992 88.5912 270.614 88.5912C268.237 88.5912 266.169 93.5691 265.218 100.78C261.974 94.4072 258.452 90.4642 256.216 91.2471C253.197 92.282 253.644 101.479 257.111 112.076C248.051 105.338 239.33 101.983 237.372 104.529C235.358 107.156 241.313 115.04 250.623 122.143C252.806 123.792 254.958 125.274 257.027 126.504C255.88 126.672 254.679 126.924 253.447 127.174C244.166 129.272 237.176 133.381 237.848 136.373C238.518 139.365 246.598 140.064 255.88 137.939C262.786 136.373 268.434 133.688 270.586 131.201C272.74 133.688 278.359 136.373 285.294 137.939C294.575 140.035 302.656 139.336 303.326 136.373C303.998 133.41 297.063 129.272 287.782 127.174Z" fill="#A692CA"/>
<path d="M267.231 148.06H274.082" stroke="#55515D" stroke-linecap="round" stroke-linejoin="round"/>
<path d="M267.202 177.976H274.051" stroke="#55515D" stroke-linecap="round" stroke-linejoin="round"/>
<path d="M267.202 207.89H274.051" stroke="#55515D" stroke-linecap="round" stroke-linejoin="round"/>
<path opacity="0.3" d="M286.971 95.0216C286.747 92.9517 286.104 91.5829 285.069 91.2202C282.833 90.4373 279.31 94.3781 276.066 100.754C275.117 93.5687 273.048 88.5621 270.67 88.5621C268.295 88.5621 266.225 93.54 265.274 100.754C262.032 94.3781 258.51 90.4373 256.272 91.2202C253.253 92.2529 253.7 101.452 257.167 112.047C248.109 105.311 239.385 101.954 237.428 104.5C235.416 107.127 241.371 115.013 250.681 122.114C252.862 123.763 255.013 125.245 257.083 126.475C255.938 126.643 254.735 126.895 253.505 127.147C244.222 129.243 237.231 133.352 237.904 136.344C237.959 136.596 238.072 136.819 238.211 137.043C245.564 135.338 253.085 132.235 260.215 127.649C273.746 119.038 283.112 107.016 286.971 95.0216Z" fill="#FEFEFE"/>
<path d="M267.202 133.856C268.71 132.989 269.914 132.094 270.668 131.2C271.424 132.067 272.598 132.961 274.106 133.827" stroke="#868686" stroke-linecap="round" stroke-linejoin="round"/>
<path d="M281.405 128.098C282.327 127.622 283.251 127.089 284.229 126.503" stroke="#868686" stroke-linecap="round" stroke-linejoin="round"/>
<path d="M257.082 126.475C257.975 127.005 258.842 127.509 259.709 127.956" stroke="#868686" stroke-linecap="round" stroke-linejoin="round"/>
<path d="M284.175 112.047C283.923 112.244 283.644 112.439 283.392 112.636C277.213 117.333 272.543 122.392 270.67 126.028C268.797 122.392 264.1 117.333 257.95 112.636C257.698 112.439 257.446 112.244 257.193 112.076" stroke="#868686" stroke-linecap="round" stroke-linejoin="round"/>
<path d="M276.15 100.614C274.726 103.436 273.494 106.344 272.488 109.307C271.76 111.377 271.174 113.39 270.67 115.32C270.194 113.39 269.58 111.377 268.854 109.307C267.846 106.344 266.616 103.465 265.219 100.669" stroke="#868686" stroke-linecap="round" stroke-linejoin="round"/>
<path d="M315.123 160.455H311.368V226.065H315.123V160.455Z" fill="#A692CA"/>
<path opacity="0.3" d="M311.368 169.621C311.919 169.727 312.503 169.789 313.086 169.789C313.785 169.789 314.475 169.705 315.132 169.546V162.078C314.115 162.45 313.022 162.587 311.897 162.45C311.718 162.428 311.547 162.397 311.368 162.366V169.621Z" fill="#7F6CA0"/>
<path d="M329.561 146.178C327.971 141.435 322.369 139.049 317.055 140.82C315.379 137.914 312.409 136.152 309.28 136.545C305.078 137.076 302.128 141.32 302.469 146.167C297.588 147.355 294.512 151.906 295.584 156.329C296.582 160.424 300.77 162.969 305.257 162.397C306.88 165.134 309.777 166.959 313.077 166.959C317.871 166.959 321.816 163.098 322.252 158.175C322.433 158.122 322.612 158.069 322.805 158.005C328.139 156.222 331.164 150.931 329.561 146.178Z" fill="#E9D7EF"/>
<path opacity="0.3" d="M320.851 151.97C319.991 156.753 316.099 160.136 311.897 159.628C308.768 159.245 306.318 156.806 305.407 153.582C301.895 153.847 298.679 152.489 296.676 150.218C295.519 152.023 295.073 154.186 295.592 156.317C296.59 160.413 300.78 162.958 305.267 162.385C306.89 165.123 309.787 166.948 313.087 166.948C317.881 166.948 321.826 163.086 322.262 158.164C322.441 158.111 322.622 158.058 322.813 157.994C328.118 156.211 331.141 150.939 329.593 146.209C328.414 149.581 324.936 152.001 320.851 151.97Z" fill="#D3D3D3"/>
<path d="M305.267 162.408C306.423 162.184 307.516 161.749 308.502 161.114" stroke="#9B9B9B" stroke-linecap="round" stroke-linejoin="round"/>
<path d="M302.469 146.167C302.542 147.047 302.799 147.905 303.201 148.701" stroke="#9B9B9B" stroke-linecap="round" stroke-linejoin="round"/>
<path d="M317.057 140.82C315.082 141.382 314.235 142.549 314.235 142.549" stroke="#9B9B9B" stroke-linecap="round" stroke-linejoin="round"/>
<path d="M322.263 158.185C322.613 155.808 322.263 154.526 322.263 154.526" stroke="#9B9B9B" stroke-linecap="round" stroke-linejoin="round"/>
<path d="M56.4825 226.733C60.0097 226.733 62.8757 223.874 62.8757 220.34C62.8757 216.813 60.0163 213.947 56.4825 213.947H27.3693V226.733H56.4825Z" fill="#E9D7EF"/>
<path opacity="0.3" d="M56.4825 213.955H27.3693V218.42H62.5816C61.7611 215.833 59.3396 213.955 56.4825 213.955Z" fill="white"/>
<path d="M27.3932 226.74C30.9248 226.74 33.7864 223.878 33.7864 220.346C33.7864 216.817 30.9248 213.955 27.3932 213.955C23.8638 213.955 21 216.817 21 220.346C21 223.878 23.8638 226.74 27.3932 226.74Z" fill="#D6CCE7"/>
<path d="M27.3942 223.986C29.4044 223.986 31.032 222.356 31.032 220.346C31.032 218.338 29.4044 216.708 27.3942 216.708C25.3863 216.708 23.7565 218.338 23.7565 220.346C23.7565 222.356 25.3863 223.986 27.3942 223.986Z" fill="#A692CA"/>
<path d="M27.3953 221.439C27.9991 221.439 28.4856 220.95 28.4856 220.346C28.4856 219.745 27.9991 219.256 27.3953 219.256C26.7938 219.256 26.3051 219.745 26.3051 220.346C26.3051 220.95 26.7938 221.439 27.3953 221.439Z" fill="#D6CCE7"/>
<path d="M32.4476 216.366H61.426" stroke="#957B9D" stroke-linecap="round" stroke-linejoin="round"/>
<path d="M32.4476 224.32H61.426" stroke="#957B9D" stroke-linecap="round" stroke-linejoin="round"/>
<path d="M33.8015 220.331H62.8594" stroke="#957B9D" stroke-linecap="round" stroke-linejoin="round"/>
<path d="M106.037 208.728C96.7251 201.443 81.9264 204.831 72.9834 216.264C70.657 219.239 68.8592 222.602 67.7291 226.222H113.158C113.62 219.283 111.223 212.783 106.037 208.728Z" fill="#E9D7EF"/>
<path opacity="0.3" d="M106.335 208.958C101.174 219.146 86.9279 222.763 73.9978 217.003C73.6064 216.841 73.2149 216.656 72.8456 216.448C70.5878 219.376 68.8585 222.673 67.7527 226.198H113.182C113.62 219.422 111.315 213.038 106.335 208.958Z" fill="#BBBBBB"/>
<path d="M292.272 206.529C292.374 206.255 292.489 206.063 292.613 205.981C292.785 205.89 292.956 205.97 293.161 206.244C294.356 207.861 296.087 215.881 297.5 226.043H292.648C291.737 216.406 291.554 208.681 292.272 206.529Z" fill="#E9D7EF"/>
<path opacity="0.2" d="M297.216 223.981C297.32 224.654 297.41 225.348 297.512 226.042H292.66C292.375 223.115 292.169 220.359 292.034 217.876C294.073 224.107 297.216 223.981 297.216 223.981Z" fill="#D3D3D3"/>
<path d="M300.508 225.167C302.593 214.583 303.697 205.253 303.117 202.976C303.049 202.737 302.969 202.567 302.865 202.498C302.73 202.405 302.582 202.463 302.388 202.679C301.123 204.137 298.776 212.544 296.773 222.659C296.532 223.913 296.315 225.019 296.134 226.032H300.338C300.395 225.747 300.45 225.463 300.508 225.167Z" fill="#E9D7EF"/>
<path opacity="0.2" d="M300.506 225.167C301.464 220.324 302.216 215.746 302.682 211.987C302.682 211.987 300.78 218.172 297.375 219.734C297.169 220.689 296.975 221.658 296.782 222.659C296.541 223.913 296.327 225.019 296.143 226.032H300.347C300.393 225.746 300.449 225.463 300.506 225.167Z" fill="#D3D3D3"/>
<path d="M309.404 207.498C309.689 207.305 309.884 207.292 310.007 207.44C310.098 207.555 310.145 207.783 310.145 208.079C310.087 210.324 307.321 217.42 303.218 226.054H297.807C302.9 216.282 307.639 208.661 309.404 207.498Z" fill="#E9D7EF"/>
<path opacity="0.2" d="M307.524 216.348C306.385 219.161 304.917 222.464 303.218 226.031H297.807C298.468 224.766 299.129 223.537 299.766 222.352C303.981 221.144 307.524 216.348 307.524 216.348Z" fill="#D3D3D3"/>
<path d="M313.608 217.989C313.927 217.854 314.144 217.854 314.281 217.945C314.382 218.024 314.429 218.183 314.429 218.389C314.382 219.506 312.823 222.33 310.294 226.043H304.962C308.88 221.693 312.151 218.593 313.608 217.989Z" fill="#E9D7EF"/>
<path opacity="0.2" d="M312.205 223.115C311.659 224.004 311.022 224.984 310.303 226.043H304.971C305.303 225.678 305.633 225.315 305.951 224.962C309.449 225.475 312.205 223.115 312.205 223.115Z" fill="#D3D3D3"/>
<path d="M296.917 221.954C296.873 222.193 296.826 222.421 296.782 222.66C296.541 223.913 296.327 225.019 296.143 226.032" stroke="#9B9B9B" stroke-linecap="round" stroke-linejoin="round"/>
<path d="M297.807 226.043C299.129 223.515 300.428 221.134 301.646 218.958" stroke="#9B9B9B" stroke-linecap="round" stroke-linejoin="round"/>
<path d="M200.561 79.2876C203.971 73.6839 206.804 69.5839 206.837 69.5508C207.259 69.1262 209.8 65.7405 211.003 64.1129C215.497 57.9939 218.035 54.4446 217.677 53.1111C217.613 52.8833 217.482 52.7197 217.255 52.6224C217.091 52.5561 216.927 52.5251 216.733 52.5251C215.985 52.5251 214.877 52.9475 213.444 53.8254C215.236 50.767 216.341 48.0315 216.799 45.7206C216.961 44.9068 216.863 44.3208 216.538 43.9293C216.213 43.507 215.658 43.4738 215.399 43.4738C215.269 43.4738 215.172 43.4738 215.172 43.4738C214.877 42.4322 214.389 41.9125 213.739 41.9125C212.989 41.9125 212.306 42.6268 212.306 42.6268C211.914 42.2044 211.492 41.9767 211.003 41.9767C209.603 41.9767 208.301 43.832 208.27 43.832C208.042 43.7016 207.748 43.6374 207.487 43.6374C204.429 43.6374 200.585 51.3199 200.554 51.384C195.899 55.8444 195.41 60.8577 195.344 61.802C194.727 62.5516 193.977 63.3986 193.099 64.3738C191.308 66.426 188.807 68.9227 186.569 71.9568L188.907 80.2031L200.561 79.2876Z" fill="#9B5A59"/>
<path d="M168.689 124.697C168.851 124.697 169.014 124.697 169.176 124.666C174.808 124.21 179.724 120.725 181.971 115.55C182.654 113.987 183.304 112.426 183.99 110.796C186.854 104.091 189.817 97.1248 193.691 90.3844C195.677 86.9346 198.15 83.027 200.591 79.1858L186.845 71.7422C183.793 75.4109 180.896 79.6745 178.455 83.7126C173.147 92.4366 168.037 104.741 163.251 116.625C162.926 117.47 162.763 118.383 162.829 119.294C163.057 122.322 165.629 124.697 168.689 124.697Z" fill="#A692CA"/>
<path d="M187.171 116.461C187.171 114.834 201.269 108.485 204.035 105.882C207.454 102.658 206.541 100.802 204.035 96.6029C201.497 92.3393 199.119 90.7117 195.897 87.8125C195.7 87.8125 194.626 87.1292 194.431 87.1624C192.251 87.4543 190.167 88.1066 187.171 89.7011C187.171 89.7011 185.999 88.9204 185.154 88.7258C185.055 88.6927 184.991 88.6927 184.893 88.6927C184.73 88.6927 184.568 88.7258 184.438 88.8231C183.591 89.3428 183.363 91.5564 183.363 91.5564C177.405 94.7475 176.298 96.5697 176.233 98.947C176.267 99.9886 176.494 100.966 176.95 101.91C177.731 103.472 180.269 105.426 180.302 105.457C178.414 106.924 175.484 108.16 172.359 109.495C168.485 111.154 164.026 113.012 160.541 115.667L163.44 125.51L187.171 116.461Z" fill="#9B5A59"/>
<path d="M194.042 137.525C199.183 137.525 203.905 134.626 205.727 131.892C207.812 128.832 208.462 125.738 207.682 122.711C205.988 116.167 198.011 112.098 197.914 112.067C201.755 109.787 204.196 108.193 205.174 107.282C208.593 104.057 209.146 99.5969 206.64 95.3974C204.099 91.1338 199.575 86.8038 195.114 86.8038C194.92 86.8038 194.725 86.8038 194.528 86.837C193.064 87.0648 191.631 87.5203 190.265 88.1395C190.265 88.1705 189.451 90.6119 195.147 92.8255C193.52 92.925 192.25 93.6083 191.925 94.5195C191.631 95.3333 192.087 96.3107 193.226 97.2859C193.195 97.2859 190.004 98.9135 189.712 101.454C189.776 101.485 193.975 102.463 195.114 104.643C195.472 105.327 195.506 106.109 195.147 106.89C194.367 108.843 191.306 109.267 188.898 109.267C187.562 109.267 186.521 109.137 186.488 109.137C183.982 110.47 181.702 115.256 181.116 120.53C180.466 126.324 181.93 131.273 185.218 134.139C187.79 136.384 190.753 137.525 194.042 137.525Z" fill="#231F20"/>
<path d="M219.726 115.095C223.048 115.095 225.587 113.759 226.531 111.482C227.281 109.754 226.956 107.704 225.717 105.719C224.448 103.733 222.365 102.072 219.857 100.997C218.099 100.25 216.244 99.8584 214.485 99.8584C211.166 99.8584 208.627 101.194 207.683 103.472C206.184 107.054 209.18 111.74 214.388 113.954C216.082 114.704 217.971 115.095 219.726 115.095Z" fill="#231F20"/>
<path d="M176.362 140.65L151.524 129.874C150.513 133.032 149.863 136.287 149.602 139.575L173.107 145.175L176.362 140.65Z" fill="#9B5A59"/>
<path d="M130.07 226.366C131.895 218.909 132.969 211.26 133.328 203.609L120.24 184.728L112.98 203.609C113.208 204.911 113.339 206.247 113.403 207.58C113.5 212.66 109.756 215.557 106.437 218.096C103.343 220.473 100.415 222.72 101.098 226.333H130.07V226.366Z" fill="#9B5A59"/>
<path d="M118.937 203.642L120.565 188.896L126.067 203.642H133.327C133.455 201.006 133.488 198.401 133.424 195.926C133.13 183.98 129.094 175.581 129.028 175.482C129.127 175.515 141.073 177.045 153.966 177.045C162.495 177.045 169.559 176.395 174.93 175.092L163.667 149.635C163.634 149.635 161.257 149.568 157.546 149.568C145.403 149.568 116.626 150.254 111.091 156.731C105.036 163.828 108.65 181.667 111.286 194.723C111.971 198.009 112.588 201.136 112.98 203.642H118.937Z" fill="#5B5F97"/>
<path opacity="0.25" d="M132.091 185.022C130.821 179.162 129.096 175.582 129.03 175.482L124.245 174.865L132.091 185.022Z" fill="#525252"/>
<path opacity="0.25" d="M153.967 177.046C162.497 177.046 169.56 176.395 174.898 175.093C174.77 174.865 159.761 153.476 155.984 153.476C155.756 153.476 155.562 153.54 155.431 153.704C155.139 154.029 155.042 154.712 155.17 155.69C156.017 163.439 153.934 168.777 152.046 171.902C149.996 175.287 147.685 176.915 147.652 176.948C149.832 177.046 151.981 177.046 153.967 177.046Z" fill="#525252"/>
<path d="M255.21 207.452C256.446 205.922 256.38 203.675 255.047 202.209C251.628 198.498 243.587 191.158 236.506 188.828C232.594 184.809 231.404 183.982 230.595 183.27L207.939 191.11L221.384 204.228C230.305 206.344 236.457 208.394 237.435 211.552C238.282 214.19 238.118 216.893 237.988 219.237C237.824 222.361 237.663 225.031 239.94 226.366L255.21 207.452Z" fill="#9B5A59"/>
<path d="M223.468 199.767L211.489 192.41L226.431 193.354L229.817 185.966C221.515 182.938 215.982 182.352 211.553 181.895C208.039 181.539 205.27 181.245 202.44 179.845C200.226 178.739 197.751 174.929 194.625 170.11C189.222 161.777 181.832 150.351 171.349 147.91L173.269 144.946L149.505 138.925C149.114 148.365 150.383 156.209 157.351 167.116C164.903 178.934 175.582 188.31 189.058 195.048C195.993 198.498 206.02 200.745 214.874 202.731C217.154 203.252 219.302 203.708 221.385 204.228L223.468 199.767Z" fill="#5B5F97"/>
<path d="M214.386 163.861C213.311 161.452 212.172 158.88 211.067 156.373C209.242 152.24 207.55 148.332 206.182 145.663C194.822 123.135 192.672 121.083 187.626 117.925C185.609 116.917 183.526 116.428 181.246 116.428C177.893 116.428 174.768 117.503 172 118.447C170.405 119 168.875 119.522 167.573 119.716C167.312 119.75 167.053 119.783 166.792 119.783C163.112 119.783 160.607 115.681 160.554 115.705C159.726 116.298 158.913 117.145 158.198 117.925C155.268 121.052 152.955 125.121 151.458 129.971L176.363 140.714L179.096 136.711C179.163 136.808 186.684 145.597 191.597 152.759C192.836 154.581 194.138 157.284 195.669 160.411C197.133 163.438 198.826 166.888 200.81 170.338L214.386 163.861Z" fill="#A692CA"/>
<path opacity="0.25" d="M179.097 136.712L175.713 132.901L177.08 139.64L179.097 136.712Z" fill="#1E1E1E"/>
<path d="M222.427 190.491C222.655 190.491 222.852 190.36 222.982 190.133C223.404 189.253 222.721 186.486 219.955 183.167C225.682 184.37 231.282 186.291 236.556 188.863C236.686 188.927 236.85 188.961 237.011 188.961C237.078 188.961 237.175 188.961 237.239 188.927C237.794 188.797 238.119 188.277 237.989 187.724C237.339 185.153 232.356 182.059 227.54 179.096C223.86 176.818 220.41 174.701 219.141 172.943C218.097 171.479 216.569 168.582 214.386 163.828L200.78 170.274C203.318 174.637 205.923 178.12 208.69 180.887C212.042 184.306 220.702 190.491 222.427 190.491Z" fill="#9B5A59"/>
<path d="M179.24 136.884L177.245 134.624" stroke="#1E1E1E" stroke-linecap="round" stroke-linejoin="round"/>
<path d="M171.642 147.987C169.656 147.565 166.759 147.662 166.759 147.662" stroke="black" stroke-linecap="round" stroke-linejoin="round"/>
<path d="M164.254 176.34C161.56 173.403 159.249 170.048 157.166 166.793" stroke="black" stroke-linecap="round" stroke-linejoin="round"/>
<path d="M215.269 43.2884C214.245 45.0443 212.885 47.8505 210.329 52.5011" stroke="#181818" stroke-linecap="round" stroke-linejoin="round"/>
<path d="M212.368 42.4363C211.214 44.4332 209.018 48.4094 207.344 51.4943" stroke="#181818" stroke-linecap="round" stroke-linejoin="round"/>
<path d="M208.291 43.726L204.235 50.692" stroke="#181818" stroke-linecap="round" stroke-linejoin="round"/>
<path d="M129.061 175.482C127.075 175.19 124.797 174.865 124.797 174.865" stroke="black" stroke-linecap="round" stroke-linejoin="round"/>
<path d="M219.955 183.197C219.173 182.353 218.522 181.7 218.522 181.7" stroke="#181818" stroke-linecap="round" stroke-linejoin="round"/>
<path d="M182.224 94.7477C182.713 95.7893 184.013 95.7893 184.013 95.7893" stroke="#181818" stroke-linecap="round" stroke-linejoin="round"/>
<path d="M187.92 93.1529C187.562 93.1529 187.27 92.8588 187.27 92.5006C187.27 92.1423 187.562 91.8504 187.92 91.8504C188.28 91.8504 188.57 92.1423 188.57 92.5006C188.57 92.8588 188.28 93.1529 187.92 93.1529Z" fill="#231F20"/>
<path d="M180.206 105.429C180.956 106.015 181.77 106.47 182.65 106.829" stroke="#181818" stroke-linecap="round" stroke-linejoin="round"/>
<path d="M188.244 104.871L189.872 105.196" stroke="#181818" stroke-linecap="round" stroke-linejoin="round"/>
<path d="M214.282 53.3322C211.672 54.8006 208.43 56.6914 208.43 56.6914C208.43 56.6914 202.245 56.0412 199.967 61.5741" stroke="#181818" stroke-linecap="round" stroke-linejoin="round"/>
<path d="M190.184 111.058C193.72 110.54 196.229 107.684 195.789 104.678C195.714 104.164 195.557 103.678 195.331 103.229C194.236 101.057 191.52 99.7447 188.59 100.174C185.054 100.692 182.544 103.548 182.985 106.554C183.425 109.559 186.648 111.576 190.184 111.058Z" fill="#5B5F97"/>
<ellipse cx="4.36765" cy="5.17647" rx="4.36765" ry="5.17647" transform="matrix(0.144915 0.989444 0.989444 -0.144915 183.608 101.884)" fill="#A692CA"/>
<path d="M195.5 104.5C200 103.756 204 95.5002 203.999 91.5L201.5 89.4999C201.308 92.9986 199.775 101.083 194 102.5L195.5 104.5Z" fill="#5B5F97"/>
<path d="M324.379 62.2256C324.379 62.4643 324.367 62.7017 324.344 62.9392C324.321 63.176 324.286 63.4115 324.239 63.6452C324.193 63.8788 324.135 64.1099 324.066 64.3379C323.997 64.5658 323.916 64.7899 323.826 65.0102C323.734 65.2299 323.633 65.4451 323.52 65.6553C323.408 65.8654 323.286 66.0699 323.154 66.268C323.021 66.466 322.88 66.6571 322.728 66.8413C322.578 67.0254 322.418 67.2019 322.25 67.3701C322.081 67.539 321.905 67.699 321.721 67.8501C321.537 68.0012 321.346 68.1428 321.148 68.2755C320.95 68.4076 320.746 68.5301 320.536 68.6425C320.326 68.7548 320.111 68.8564 319.891 68.9479C319.671 69.0386 319.447 69.1186 319.219 69.1878C318.991 69.2571 318.761 69.3148 318.527 69.3618C318.294 69.4082 318.059 69.4431 317.822 69.4666C317.585 69.4901 317.347 69.5015 317.109 69.5015C316.871 69.5015 316.633 69.4901 316.397 69.4666C316.16 69.4431 315.924 69.4082 315.691 69.3618C315.458 69.3148 315.226 69.2571 314.999 69.1878C314.771 69.1186 314.547 69.0386 314.327 68.9479C314.107 68.8564 313.892 68.7548 313.682 68.6425C313.472 68.5301 313.268 68.4076 313.07 68.2755C312.872 68.1428 312.681 68.0012 312.497 67.8501C312.314 67.699 312.137 67.539 311.969 67.3701C311.801 67.2019 311.641 67.0254 311.489 66.8413C311.338 66.6571 311.197 66.466 311.065 66.268C310.933 66.0699 310.81 65.8654 310.698 65.6553C310.585 65.4451 310.484 65.2299 310.393 65.0102C310.302 64.7899 310.222 64.5658 310.152 64.3379C310.083 64.1099 310.025 63.8788 309.979 63.6452C309.933 63.4115 309.898 63.176 309.874 62.9392C309.851 62.7017 309.839 62.4643 309.839 62.2256C309.839 61.9875 309.851 61.75 309.874 61.5126C309.898 61.2757 309.933 61.0402 309.979 60.8066C310.025 60.5729 310.083 60.3418 310.152 60.1139C310.222 59.886 310.302 59.6618 310.393 59.4415C310.484 59.2212 310.585 59.006 310.698 58.7958C310.81 58.5857 310.933 58.3819 311.065 58.1838C311.197 57.9857 311.338 57.7946 311.489 57.6098C311.641 57.4257 311.801 57.2499 311.969 57.081C312.137 56.9127 312.314 56.7527 312.497 56.6016C312.681 56.4505 312.872 56.3089 313.07 56.1762C313.268 56.0442 313.472 55.9217 313.682 55.8093C313.892 55.6969 314.107 55.5953 314.327 55.5039C314.547 55.4125 314.771 55.3325 314.999 55.2633C315.226 55.1941 315.458 55.1363 315.691 55.0899C315.924 55.0436 316.16 55.0087 316.397 54.9852C316.633 54.9617 316.871 54.9503 317.109 54.9503C317.347 54.9503 317.585 54.9617 317.822 54.9852C318.059 55.0087 318.294 55.0436 318.527 55.0899C318.761 55.1363 318.991 55.1941 319.219 55.2633C319.447 55.3325 319.671 55.4125 319.891 55.5039C320.111 55.5953 320.326 55.6969 320.536 55.8093C320.746 55.9217 320.95 56.0442 321.148 56.1762C321.346 56.3089 321.537 56.4505 321.721 56.6016C321.905 56.7527 322.081 56.9127 322.25 57.081C322.418 57.2499 322.578 57.4257 322.728 57.6098C322.88 57.7946 323.021 57.9857 323.154 58.1838C323.286 58.3819 323.408 58.5857 323.52 58.7958C323.633 59.006 323.734 59.2212 323.826 59.4415C323.916 59.6618 323.997 59.886 324.066 60.1139C324.135 60.3418 324.193 60.5729 324.239 60.8066C324.286 61.0402 324.321 61.2757 324.344 61.5126C324.367 61.75 324.379 61.9875 324.379 62.2256Z" fill="#9D8BC3"/>
<path d="M324.379 62.2256C324.379 66.2458 321.126 69.5016 317.109 69.5016C314.001 69.5016 311.348 67.5461 310.312 64.7995C311.611 66.0185 313.365 66.7734 315.292 66.7734C319.308 66.7734 322.562 63.517 322.562 59.4975C322.562 58.5883 322.398 57.7242 322.089 56.9236C323.497 58.2518 324.379 60.1343 324.379 62.2256Z" fill="#9D8BC3"/>
<path d="M303.478 71.3205C303.478 71.5586 303.467 71.7967 303.443 72.0335C303.42 72.2709 303.385 72.5058 303.338 72.7395C303.292 72.9738 303.234 73.2042 303.165 73.4322C303.096 73.6601 303.016 73.8842 302.925 74.1045C302.834 74.3248 302.732 74.5401 302.62 74.7502C302.507 74.9604 302.385 75.1642 302.253 75.3623C302.121 75.5603 301.979 75.7521 301.828 75.9362C301.677 76.1203 301.517 76.2968 301.349 76.4651C301.18 76.6333 301.004 76.7933 300.82 76.9444C300.636 77.0955 300.445 77.2377 300.247 77.3698C300.05 77.5025 299.845 77.6244 299.636 77.7368C299.425 77.8491 299.21 77.9507 298.991 78.0422C298.77 78.1336 298.547 78.2136 298.319 78.2828C298.091 78.352 297.86 78.4098 297.627 78.4561C297.393 78.5025 297.158 78.5374 296.921 78.5609C296.684 78.5844 296.447 78.5958 296.208 78.5958C295.97 78.5958 295.733 78.5844 295.496 78.5609C295.259 78.5374 295.024 78.5025 294.79 78.4561C294.556 78.4098 294.326 78.352 294.098 78.2828C293.87 78.2136 293.647 78.1336 293.426 78.0422C293.207 77.9507 292.991 77.8491 292.782 77.7368C292.572 77.6244 292.368 77.5025 292.17 77.3698C291.972 77.2377 291.781 77.0955 291.597 76.9444C291.412 76.7933 291.237 76.6333 291.068 76.4651C290.899 76.2968 290.74 76.1203 290.589 75.9362C290.438 75.7521 290.296 75.5603 290.164 75.3623C290.032 75.1642 289.91 74.9604 289.797 74.7502C289.685 74.5401 289.583 74.3248 289.493 74.1045C289.401 73.8842 289.321 73.6601 289.252 73.4322C289.183 73.2042 289.125 72.9738 289.079 72.7395C289.032 72.5058 288.997 72.2709 288.974 72.0335C288.95 71.7967 288.939 71.5586 288.939 71.3205C288.939 71.0818 288.95 70.8443 288.974 70.6075C288.997 70.37 289.032 70.1345 289.079 69.9009C289.125 69.6672 289.183 69.4361 289.252 69.2082C289.321 68.9803 289.401 68.7561 289.493 68.5358C289.583 68.3162 289.685 68.1009 289.797 67.8908C289.91 67.6806 290.032 67.4762 290.164 67.2781C290.296 67.08 290.438 66.8889 290.589 66.7048C290.74 66.5207 290.899 66.3442 291.068 66.1759C291.237 66.007 291.412 65.8477 291.597 65.6959C291.781 65.5448 291.972 65.4032 292.17 65.2705C292.368 65.1385 292.572 65.016 292.782 64.9036C292.991 64.7912 293.207 64.6896 293.426 64.5988C293.647 64.5074 293.87 64.4274 294.098 64.3582C294.326 64.289 294.556 64.2312 294.79 64.1842C295.024 64.1379 295.259 64.103 295.496 64.0795C295.733 64.0566 295.97 64.0446 296.208 64.0446C296.447 64.0446 296.684 64.0566 296.921 64.0795C297.158 64.103 297.393 64.1379 297.627 64.1842C297.86 64.2312 298.091 64.289 298.319 64.3582C298.547 64.4274 298.77 64.5074 298.991 64.5988C299.21 64.6896 299.425 64.7912 299.636 64.9036C299.845 65.016 300.05 65.1385 300.247 65.2705C300.445 65.4032 300.636 65.5448 300.82 65.6959C301.004 65.8477 301.18 66.007 301.349 66.1759C301.517 66.3442 301.677 66.5207 301.828 66.7048C301.979 66.8889 302.121 67.08 302.253 67.2781C302.385 67.4762 302.507 67.6806 302.62 67.8908C302.732 68.1009 302.834 68.3162 302.925 68.5358C303.016 68.7561 303.096 68.9803 303.165 69.2082C303.234 69.4361 303.292 69.6672 303.338 69.9009C303.385 70.1345 303.42 70.37 303.443 70.6075C303.467 70.8443 303.478 71.0818 303.478 71.3205Z" fill="#9D8BC3"/>
<path d="M303.478 71.3204C303.478 75.34 300.225 78.5957 296.208 78.5957C293.501 78.5957 291.138 77.1132 289.893 74.9127C290.947 75.5222 292.174 75.8676 293.482 75.8676C297.499 75.8676 300.752 72.6118 300.752 68.5916C300.752 67.2825 300.407 66.0546 299.798 64.9994C301.997 66.2457 303.478 68.6101 303.478 71.3204Z" fill="#9D8BC3"/>
<path d="M324.379 34.033V43.3088L303.478 52.8672V43.1272L324.379 34.033Z" fill="#9D8BC3"/>
<path d="M324.379 34.033V43.3088L303.478 52.8672V49.3842L318.234 42.6377C319.763 41.9387 320.744 40.4105 320.744 38.728V35.6151L324.379 34.033Z" fill="#9D8BC3"/>
<mask id="mask0_1_284" style="mask-type:luminance" maskUnits="userSpaceOnUse" x="288" y="33" width="38" height="47">
<path d="M288 33H325.294V79.6472H288V33Z" fill="white"/>
</mask>
<g mask="url(#mask0_1_284)">
<path d="M324.876 33.2724C324.62 33.1048 324.295 33.0756 324.016 33.1987L303.116 42.2936C302.784 42.4371 302.569 42.7647 302.569 43.1273V66.1868C301.069 64.3284 298.776 63.1354 296.208 63.1354C291.698 63.1354 288.03 66.8071 288.03 71.3206C288.03 75.834 291.698 79.5057 296.208 79.5057C300.718 79.5057 304.387 75.834 304.387 71.3206V53.4558L323.469 44.7247V57.0925C321.969 55.2335 319.677 54.0405 317.108 54.0405C312.599 54.0405 308.93 57.7121 308.93 62.2256C308.93 66.7391 312.599 70.4107 317.108 70.4107C321.619 70.4107 325.287 66.7391 325.287 62.2256V34.0323C325.287 33.7263 325.133 33.44 324.876 33.2724ZM296.208 77.6867C292.701 77.6867 289.847 74.8303 289.847 71.3206C289.847 67.8102 292.701 64.9544 296.208 64.9544C299.715 64.9544 302.569 67.8102 302.569 71.3206C302.569 74.8303 299.715 77.6867 296.208 77.6867ZM317.108 68.5918C313.602 68.5918 310.747 65.736 310.747 62.2256C310.747 58.7159 313.602 55.8595 317.108 55.8595C320.616 55.8595 323.469 58.7159 323.469 62.2256C323.469 65.736 320.616 68.5918 317.108 68.5918ZM304.387 51.4559V43.7234L323.469 35.4202V42.7247L304.387 51.4559Z" fill="#9D8BC3"/>
</g>
<path d="M92.1216 26.5747C92.1216 26.7264 92.1139 26.8773 92.099 27.0282C92.0844 27.1787 92.0623 27.3284 92.0324 27.4769C92.0029 27.6254 91.9662 27.7723 91.9222 27.9172C91.8787 28.062 91.8274 28.2045 91.7697 28.3445C91.7116 28.4841 91.647 28.6209 91.5756 28.7545C91.5046 28.888 91.4267 29.018 91.3428 29.1438C91.2584 29.2697 91.1685 29.3912 91.0724 29.5082C90.9768 29.6252 90.8751 29.7374 90.7682 29.8444C90.6612 29.9517 90.5491 30.0534 90.432 30.1494C90.315 30.2455 90.194 30.3354 90.0681 30.4198C89.9422 30.5037 89.8126 30.5816 89.6791 30.653C89.5455 30.7244 89.4091 30.789 89.2691 30.8471C89.1295 30.9048 88.987 30.9556 88.8422 30.9996C88.6973 31.0436 88.5508 31.0803 88.4023 31.1102C88.2539 31.1396 88.1046 31.1618 87.954 31.1768C87.8031 31.1917 87.6522 31.199 87.5009 31.199C87.3496 31.199 87.1987 31.1917 87.0481 31.1768C86.8976 31.1618 86.7479 31.1396 86.5998 31.1102C86.4513 31.0803 86.3045 31.0436 86.16 30.9996C86.0151 30.9556 85.8727 30.9048 85.7331 30.8471C85.5931 30.789 85.4563 30.7244 85.3231 30.653C85.1895 30.5816 85.06 30.5037 84.9341 30.4198C84.8082 30.3354 84.6868 30.2455 84.5697 30.1494C84.4531 30.0534 84.3409 29.9517 84.234 29.8444C84.1271 29.7374 84.0254 29.6252 83.9294 29.5082C83.8333 29.3912 83.7433 29.2697 83.6594 29.1438C83.5755 29.018 83.4976 28.888 83.4262 28.7545C83.3547 28.6209 83.2902 28.4841 83.2325 28.3445C83.1744 28.2045 83.1235 28.062 83.0795 27.9172C83.0356 27.7723 82.9988 27.6254 82.9694 27.4769C82.9399 27.3284 82.9177 27.1787 82.9028 27.0282C82.8883 26.8773 82.8806 26.7264 82.8806 26.5747C82.8806 26.4233 82.8883 26.2724 82.9028 26.1215C82.9177 25.971 82.9399 25.8213 82.9694 25.6728C82.9988 25.5243 83.0356 25.3774 83.0795 25.2326C83.1235 25.0877 83.1744 24.9452 83.2325 24.8052C83.2902 24.6652 83.3547 24.5284 83.4262 24.3949C83.4976 24.2613 83.5755 24.1318 83.6594 24.0059C83.7433 23.88 83.8333 23.7585 83.9294 23.6411C84.0254 23.5241 84.1271 23.4123 84.234 23.3049C84.3409 23.198 84.4531 23.0963 84.5697 23.0003C84.6868 22.9043 84.8082 22.8143 84.9341 22.7299C85.06 22.646 85.1895 22.5681 85.3231 22.4967C85.4563 22.4253 85.5931 22.3607 85.7331 22.3026C85.8727 22.2445 86.0151 22.1937 86.16 22.1497C86.3045 22.1057 86.4513 22.069 86.5998 22.0395C86.7479 22.0101 86.8976 21.9879 87.0481 21.9729C87.1987 21.958 87.3496 21.9507 87.5009 21.9507C87.6522 21.9507 87.8031 21.958 87.954 21.9729C88.1046 21.9879 88.2539 22.0101 88.4023 22.0395C88.5508 22.069 88.6973 22.1057 88.8422 22.1497C88.987 22.1937 89.1295 22.2445 89.2691 22.3026C89.4091 22.3607 89.5455 22.4253 89.6791 22.4967C89.8126 22.5681 89.9422 22.646 90.0681 22.7299C90.194 22.8143 90.315 22.9043 90.432 23.0003C90.5491 23.0963 90.6612 23.198 90.7682 23.3049C90.8751 23.4123 90.9768 23.5241 91.0724 23.6411C91.1685 23.7585 91.2584 23.88 91.3428 24.0059C91.4267 24.1318 91.5046 24.2613 91.5756 24.3949C91.647 24.5284 91.7116 24.6652 91.7697 24.8052C91.8274 24.9452 91.8787 25.0877 91.9222 25.2326C91.9662 25.3774 92.0029 25.5243 92.0324 25.6728C92.0623 25.8213 92.0844 25.971 92.099 26.1215C92.1139 26.2724 92.1216 26.4233 92.1216 26.5747Z" fill="#9D8BC3"/>
<path d="M92.1217 26.5745C92.1217 29.1296 90.0541 31.1989 87.501 31.1989C85.5258 31.1989 83.8395 29.956 83.181 28.2104C84.007 28.9852 85.1215 29.4649 86.3462 29.4649C88.8988 29.4649 90.9664 27.3953 90.9664 24.8406C90.9664 24.2628 90.8623 23.7136 90.6662 23.2048C91.5612 24.0489 92.1217 25.2454 92.1217 26.5745Z" fill="#9D8BC3"/>
<path d="M78.8377 32.355C78.8377 32.5063 78.8304 32.6576 78.8155 32.8081C78.8005 32.959 78.7783 33.1083 78.7489 33.2568C78.7194 33.4057 78.6827 33.5522 78.6387 33.6971C78.5947 33.8419 78.5439 33.9844 78.4862 34.1244C78.4281 34.2644 78.3635 34.4012 78.2921 34.5348C78.2207 34.6683 78.1432 34.7979 78.0593 34.9238C77.9749 35.0497 77.885 35.1715 77.7889 35.2885C77.6929 35.4056 77.5916 35.5177 77.4847 35.6247C77.3773 35.7316 77.2656 35.8333 77.1485 35.9293C77.0315 36.0254 76.9101 36.1157 76.7842 36.1997C76.6587 36.284 76.5287 36.3615 76.3956 36.4329C76.262 36.5043 76.1252 36.5689 75.9856 36.627C75.8456 36.6851 75.7035 36.736 75.5587 36.7799C75.4138 36.8239 75.2673 36.8606 75.1188 36.8901C74.9703 36.9196 74.821 36.9417 74.6701 36.9567C74.5196 36.9716 74.3687 36.9789 74.2174 36.9789C74.0661 36.9789 73.9151 36.9716 73.7646 36.9567C73.6141 36.9417 73.4644 36.9196 73.3159 36.8901C73.1674 36.8606 73.021 36.8239 72.8761 36.7799C72.7312 36.736 72.5892 36.6851 72.4492 36.627C72.3096 36.5689 72.1728 36.5043 72.0396 36.4329C71.906 36.3615 71.7765 36.284 71.6506 36.1997C71.5247 36.1157 71.4033 36.0254 71.2862 35.9293C71.1692 35.8333 71.0574 35.7316 70.9505 35.6247C70.8432 35.5177 70.7419 35.4056 70.6458 35.2885C70.5498 35.1715 70.4598 35.0497 70.3759 34.9238C70.2916 34.7979 70.2141 34.6683 70.1427 34.5348C70.0712 34.4012 70.0067 34.2644 69.949 34.1244C69.8909 33.9844 69.84 33.8419 69.796 33.6971C69.7521 33.5522 69.7153 33.4057 69.6859 33.2568C69.6564 33.1083 69.6342 32.959 69.6193 32.8081C69.6044 32.6576 69.5971 32.5063 69.5971 32.355C69.5971 32.2032 69.6044 32.0523 69.6193 31.9018C69.6342 31.7509 69.6564 31.6012 69.6859 31.4527C69.7153 31.3042 69.7521 31.1573 69.796 31.0125C69.84 30.8676 69.8909 30.7252 69.949 30.5851C70.0067 30.4455 70.0712 30.3087 70.1427 30.1752C70.2141 30.0416 70.2916 29.9117 70.3759 29.7858C70.4598 29.6599 70.5498 29.5384 70.6458 29.4214C70.7419 29.3044 70.8432 29.1922 70.9505 29.0853C71.0574 28.9779 71.1692 28.8766 71.2862 28.7802C71.4033 28.6842 71.5247 28.5942 71.6506 28.5098C71.7765 28.4259 71.906 28.348 72.0396 28.2766C72.1728 28.2052 72.3096 28.1406 72.4492 28.0829C72.5892 28.0248 72.7312 27.974 72.8761 27.93C73.021 27.886 73.1674 27.8493 73.3159 27.8194C73.4644 27.79 73.6141 27.7678 73.7646 27.7528C73.9151 27.7383 74.0661 27.7307 74.2174 27.7307C74.3687 27.7307 74.5196 27.7383 74.6701 27.7528C74.821 27.7678 74.9703 27.79 75.1188 27.8194C75.2673 27.8493 75.4138 27.886 75.5587 27.93C75.7035 27.974 75.8456 28.0248 75.9856 28.0829C76.1252 28.1406 76.262 28.2052 76.3956 28.2766C76.5287 28.348 76.6587 28.4259 76.7842 28.5098C76.9101 28.5942 77.0315 28.6842 77.1485 28.7802C77.2656 28.8766 77.3773 28.9779 77.4847 29.0853C77.5916 29.1922 77.6929 29.3044 77.7889 29.4214C77.885 29.5384 77.9749 29.6599 78.0593 29.7858C78.1432 29.9117 78.2207 30.0416 78.2921 30.1752C78.3635 30.3087 78.4281 30.4455 78.4862 30.5851C78.5439 30.7252 78.5947 30.8676 78.6387 31.0125C78.6827 31.1573 78.7194 31.3042 78.7489 31.4527C78.7783 31.6012 78.8005 31.7509 78.8155 31.9018C78.8304 32.0523 78.8377 32.2032 78.8377 32.355Z" fill="#9D8BC3"/>
<path d="M78.8369 32.3551C78.8369 34.9098 76.7693 36.979 74.2167 36.979C72.4957 36.979 70.9942 36.0368 70.2029 34.6382C70.8727 35.0256 71.6523 35.2451 72.484 35.2451C75.037 35.2451 77.1042 33.1759 77.1042 30.6208C77.1042 29.7888 76.8851 29.0084 76.4982 28.3377C77.8955 29.1298 78.8369 30.6325 78.8369 32.3551Z" fill="#9D8BC3"/>
<path d="M92.1214 8.65637V14.5518L78.8376 20.6267V14.4364L92.1214 8.65637Z" fill="#9D8BC3"/>
<path d="M92.1214 8.65637V14.5518L78.8376 20.6267V18.413L88.2157 14.1252C89.1874 13.681 89.8108 12.7097 89.8108 11.6404V9.66194L92.1214 8.65637Z" fill="#9D8BC3"/>
<mask id="mask1_1_284" style="mask-type:luminance" maskUnits="userSpaceOnUse" x="69" y="8" width="24" height="30">
<path d="M69 8H92.7026V37.6472H69V8Z" fill="white"/>
</mask>
<g mask="url(#mask1_1_284)">
<path d="M92.4358 8.17318C92.2728 8.06665 92.0662 8.04809 91.8891 8.12637L78.6057 13.9068C78.3946 13.998 78.2583 14.2062 78.2583 14.4366V29.0923C77.3047 27.9112 75.8476 27.153 74.2154 27.153C71.3492 27.153 69.0177 29.4866 69.0177 32.3552C69.0177 35.2238 71.3492 37.5573 74.2154 37.5573C77.0816 37.5573 79.4135 35.2238 79.4135 32.3552V21.001L91.5416 15.4518V23.3123C90.5881 22.1308 89.131 21.3726 87.4988 21.3726C84.6326 21.3726 82.3011 23.7062 82.3011 26.5748C82.3011 29.4434 84.6326 31.7769 87.4988 31.7769C90.3654 31.7769 92.6969 29.4434 92.6969 26.5748V8.65619C92.6969 8.46169 92.5989 8.27971 92.4358 8.17318ZM74.2154 36.4013C71.9864 36.4013 70.1726 34.5858 70.1726 32.3552C70.1726 30.1241 71.9864 28.3091 74.2154 28.3091C76.4444 28.3091 78.2583 30.1241 78.2583 32.3552C78.2583 34.5858 76.4444 36.4013 74.2154 36.4013ZM87.4988 30.6209C85.2702 30.6209 83.456 28.8058 83.456 26.5748C83.456 24.3441 85.2702 22.5287 87.4988 22.5287C89.7278 22.5287 91.5416 24.3441 91.5416 26.5748C91.5416 28.8058 89.7278 30.6209 87.4988 30.6209ZM79.4135 19.7299V14.8155L91.5416 9.53828V14.1807L79.4135 19.7299Z" fill="#9D8BC3"/>
</g>
</svg>
