<svg width="350" height="227" viewBox="0 0 350 227" fill="none" xmlns="http://www.w3.org/2000/svg">
<g clip-path="url(#clip0_1_14)">
<path d="M145.391 52.5499H162.438C168.365 47.2069 166.389 37.1364 166.389 37.1364H149.344C149.344 37.1364 151.317 47.2069 145.391 52.5499Z" fill="#A692CA"/>
<path d="M129.783 32.3081H146.831C152.758 26.9678 150.781 16.8946 150.781 16.8946H133.733C133.733 16.8946 135.71 26.9678 129.783 32.3081Z" fill="white"/>
<path d="M193.635 84.4542L194.959 85.6427C194.983 85.6427 194.983 85.6666 194.983 85.6905L196.103 89.187C196.103 89.2109 196.103 89.2321 196.057 89.2321L192.561 89.2109C192.561 89.2109 189.632 87.9534 189.404 87.8394V87.8155L191.874 85.0273C191.874 85.0273 191.898 85.0034 191.919 85.0034L193.635 84.4542Z" fill="#555555"/>
<path d="M187.255 90.7414L185.244 87.7463L183.645 87.542L182.042 87.9532L180.442 91.1977C180.442 91.2216 180.442 91.2216 180.466 91.2216L183.849 91.7018L187.234 90.7653C187.279 90.7653 187.279 90.7653 187.255 90.7414Z" fill="#C9C9C9"/>
<path d="M182.066 103.98L192.492 104.163L197.246 98.6287C197.27 98.6048 197.246 98.5836 197.225 98.5836H177.654C177.631 98.5836 177.63 98.6048 177.63 98.6287L182.066 103.98Z" fill="black"/>
<path d="M184.353 112.185L189.404 87.8153C189.404 87.7914 189.428 87.7914 189.428 87.7914L196.082 89.1629C196.103 89.1629 196.103 89.1868 196.103 89.1868L191.073 113.58L184.353 112.185Z" fill="#A692CA"/>
<path d="M194.022 82.6951L195.007 85.6425C195.007 85.6664 195.007 85.6664 194.983 85.6664L191.942 85.0271C191.919 85.0271 191.919 85.0032 191.919 84.9793L193.977 82.6713C193.977 82.6713 193.998 82.6713 194.022 82.6951Z" fill="#A692CA"/>
<path d="M180.466 91.2217L187.255 90.7654C187.279 90.7654 187.279 90.7654 187.279 90.7866L188.903 115.639L182.066 116.072L180.442 91.2217C180.442 91.2217 180.442 91.2217 180.466 91.2217Z" fill="#5B5F97"/>
<path d="M183.438 85.1174L182.067 87.9534L185.245 87.7465L183.483 85.0936C183.483 85.0936 183.462 85.0936 183.438 85.1174Z" fill="#5B5F97"/>
<path d="M187.462 101.99C191.007 102.014 194.458 100.822 197.246 98.6046C197.27 98.5834 197.291 98.6046 197.291 98.6285L195.944 110.927L193.75 118.313L181.265 118.199L178.957 110.744L177.63 98.6285C177.63 98.6046 177.654 98.6046 177.676 98.6046C180.466 100.822 183.918 102.014 187.462 101.99Z" fill="#5B5F97"/>
<path d="M178.958 110.745C183.895 106.585 191.073 106.699 195.92 110.928V110.952L194.984 119.571H179.894L178.958 110.745Z" fill="#060606"/>
<path d="M207.241 125.415V150.527H164.089C160.189 150.527 157.042 147.384 157.042 143.481V125.441L207.241 125.415Z" fill="white"/>
<path opacity="0.25" d="M207.241 125.415V131.204L157.042 126.951V125.441L207.241 125.415Z" fill="#5A5A5A"/>
<path d="M202.94 119.226H94.5891C88.8509 119.226 84.2215 123.881 84.2215 129.593V223.777C84.2215 225.512 85.6302 226.921 87.3652 226.921C87.3917 226.921 87.4156 226.921 87.4156 226.921C89.1533 226.847 90.5116 225.412 90.5116 223.676V131.177C90.5116 128.057 93.0531 125.516 96.1729 125.516H201.33C204.449 125.516 206.991 128.057 206.991 131.177V223.676C206.964 225.412 208.349 226.847 210.084 226.921C211.822 226.948 213.254 225.563 213.281 223.828C213.281 223.801 213.281 223.777 213.281 223.777V129.593C213.305 123.881 208.676 119.226 202.94 119.226Z" fill="#5B5F97"/>
<path d="M182.131 141.192C183.922 141.192 185.375 139.738 185.375 137.947C185.375 136.154 183.922 134.7 182.131 134.7C180.337 134.7 178.884 136.154 178.884 137.947C178.884 139.738 180.337 141.192 182.131 141.192Z" fill="#5A5A5A"/>
<path d="M160.951 118.743H156.46L108.609 117.663L115.112 83.39L162.962 82.037H167.456L160.951 118.743Z" fill="#A692CA" stroke="#A692CA" stroke-linejoin="round"/>
<path d="M156.29 118.743H103.945L110.45 82.037H162.792L156.29 118.743Z" fill="white" stroke="white" stroke-linejoin="round"/>
<path d="M152.393 113.779H136.632L141.397 86.6771H157.182L152.393 113.779Z" fill="white" stroke="white" stroke-linejoin="round"/>
<path d="M116.031 89.444C118.045 87.6028 120.525 86.6796 122.839 86.7088C124.834 86.7327 126.701 87.4649 128.036 88.9213C128.508 89.4387 128.895 90.0276 129.184 90.6696C130.59 93.8001 129.577 97.9731 126.457 100.83C122.706 104.263 117.334 104.499 114.453 101.356C111.574 98.2145 112.28 92.8795 116.031 89.444Z" fill="#A692CA" stroke="#A692CA" stroke-linejoin="round"/>
<path d="M121.409 94.9118L121.38 95.063C121.377 95.0683 121.38 95.0736 121.38 95.0789C121.382 95.0816 121.382 95.0869 121.388 95.0895C121.39 95.0922 121.396 95.0949 121.401 95.0949C121.406 95.0949 121.412 95.0922 121.414 95.0895L121.478 95.063C121.847 94.8534 121.897 94.8083 124.378 93.3943C125.439 92.7762 128.439 91.0969 129.638 90.431C128.617 88.176 126.123 86.1545 122.712 86.2049C122.704 86.2871 122.656 86.6453 122.624 86.8973C122.59 87.1812 122.576 87.2793 122.51 87.725V87.7303L121.409 94.9118Z" fill="white"/>
<path d="M136.868 82.3979L130.578 118.669" stroke="#A6A6A6" stroke-linecap="round" stroke-linejoin="round"/>
<path d="M110.623 108.296L109.654 113.779H126.532L127.501 108.296H110.623Z" fill="white" stroke="white" stroke-linejoin="round"/>
<path d="M298.014 13H183.585V87.388H298.014V13Z" fill="#E9D7EF"/>
<path d="M301.999 89.5714C301.999 90.8793 300.935 91.9431 299.628 91.9431H181.973C180.665 91.9431 179.601 90.8793 179.601 89.5714C179.601 88.2609 180.665 87.1997 181.973 87.1997H299.628C300.935 87.1997 301.999 88.2609 301.999 89.5714Z" fill="#A692CA"/>
<path opacity="0.25" d="M278.396 61.116L265.397 74.0411L274.255 82.9496L287.252 70.0245L278.396 61.116Z" fill="#E8D5EF"/>
<path d="M277.808 58.519L264.808 71.444L273.667 80.3526L286.666 67.4275L277.808 58.519Z" fill="#5B5F97"/>
<path d="M283.495 64.228L270.498 77.153L273.682 80.3524L286.681 67.43L283.495 64.228Z" fill="#AC98D0"/>
<path opacity="0.25" d="M285.641 41.5403C287.257 41.5403 288.565 40.2324 288.565 38.6194C288.565 37.0065 287.257 35.6959 285.641 35.6959C284.025 35.6959 282.718 37.0065 282.718 38.6194C282.718 40.2324 284.025 41.5403 285.641 41.5403Z" fill="#BAB9BA"/>
<path opacity="0.25" d="M272.358 45.1483C273.974 45.1483 275.279 43.8378 275.279 42.2248C275.279 40.6118 273.974 39.3013 272.358 39.3013C270.743 39.3013 269.435 40.6118 269.435 42.2248C269.435 43.8378 270.743 45.1483 272.358 45.1483Z" fill="#BAB9BA"/>
<path opacity="0.25" d="M281.826 32.2816C283.441 32.2816 284.749 30.971 284.749 29.3581C284.749 27.7451 283.441 26.4372 281.826 26.4372C280.213 26.4372 278.905 27.7451 278.905 29.3581C278.905 30.971 280.213 32.2816 281.826 32.2816Z" fill="#BAB9BA"/>
<path d="M284.846 39.5689C286.459 39.5689 287.767 38.261 287.767 36.6453C287.767 35.0324 286.459 33.7218 284.846 33.7218C283.23 33.7218 281.922 35.0324 281.922 36.6453C281.922 38.261 283.23 39.5689 284.846 39.5689Z" fill="white"/>
<path d="M271.559 43.1742C273.174 43.1742 274.482 41.8663 274.482 40.2507C274.482 38.6377 273.174 37.3298 271.559 37.3298C269.946 37.3298 268.638 38.6377 268.638 40.2507C268.638 41.8663 269.946 43.1742 271.559 43.1742Z" fill="#AC98D0"/>
<path d="M281.012 30.3078C282.625 30.3078 283.933 28.9999 283.933 27.3843C283.933 25.7713 282.625 24.4634 281.012 24.4634C279.396 24.4634 278.088 25.7713 278.088 27.3843C278.088 28.9999 279.396 30.3078 281.012 30.3078Z" fill="#5B5F97"/>
<path d="M216.055 40.1952C220.648 42.9277 224.86 35.8285 222.298 33.7804C219.907 31.8836 216.928 35.0512 216.928 35.0512L218.331 29.9655C218.331 29.9655 220.496 31.3716 223.55 29.9655" stroke="#5B5F97" stroke-linecap="round" stroke-linejoin="round"/>
<path d="M207.991 32.0905C208.617 29.7002 212.753 29.0741 213.551 31.4458C215.164 36.2662 206.396 37.1576 206.245 40.8213C209.434 38.8846 209.909 40.8213 212.925 40.8213" stroke="#5B5F97" stroke-linecap="round" stroke-linejoin="round"/>
<path d="M195.996 36.9693L199.737 41.1424L203.91 25.7342H227.898" stroke="#5B5F97" stroke-linecap="round" stroke-linejoin="round"/>
<path d="M231.257 33.364H235.791" stroke="#5B5F97" stroke-linecap="round" stroke-linejoin="round"/>
<path d="M230.933 35.8683H235.449" stroke="#5B5F97" stroke-linecap="round" stroke-linejoin="round"/>
<path d="M257.671 56.171H262.204" stroke="#5B5F97" stroke-linecap="round" stroke-linejoin="round"/>
<path d="M257.329 58.6968H261.863" stroke="#5B5F97" stroke-linecap="round" stroke-linejoin="round"/>
<path d="M233.475 58.2404C233.95 55.3566 236.892 54.9375 238.181 55.5078C239.359 56.0013 240.877 58.0308 238.847 60.7076C237.12 63.0236 232.926 64.1033 233.135 60.1372C233.135 60.1372 233.78 51.486 239.569 51.9397" stroke="#5B5F97" stroke-linecap="round" stroke-linejoin="round"/>
<path d="M246.646 62.8326L249.53 51.9025L242.301 57.6912H249.681" stroke="#5B5F97" stroke-linecap="round" stroke-linejoin="round"/>
<path d="M222.583 59.6836L226.321 63.8567L230.494 48.4485H254.482" stroke="#5B5F97" stroke-linecap="round" stroke-linejoin="round"/>
<path d="M219.507 206.216H265L262.002 187.093C261.649 184.722 260.858 182.435 259.659 180.363L259.06 183.305C257.426 191.314 250.398 197.063 242.224 197.063C234.053 197.063 227.026 191.314 225.391 183.305L224.792 180.363C223.619 182.461 222.831 184.722 222.449 187.093L219.507 206.216Z" fill="#5B5F97"/>
<path opacity="0.25" d="M225.418 183.305C227.052 192.869 231.71 200.796 242.224 200.796C252.74 200.796 257.425 192.895 259.059 183.305L259.224 182.352C259.006 181.862 258.76 181.371 258.489 180.909L257.916 183.605C256.391 190.961 249.825 196.272 242.197 196.272C234.57 196.272 228.004 190.988 226.479 183.605L225.908 180.909C225.635 181.371 225.418 181.835 225.2 182.326L225.418 183.305Z" fill="black"/>
<path d="M241.736 163.366H242.744C245.983 163.366 248.599 165.981 248.599 169.223V175.842C248.599 179.084 245.983 181.7 242.744 181.7H241.736C238.494 181.7 235.878 179.084 235.878 175.842V169.223C235.878 165.981 238.494 163.366 241.736 163.366Z" stroke="black" stroke-linecap="round" stroke-linejoin="round"/>
<path d="M264.97 206.216H219.507L217.764 217.493C217.055 222.096 220.186 226.375 224.791 227.081C225.2 227.137 225.635 227.192 226.07 227.192H258.433C263.092 227.192 266.851 223.433 266.851 218.775C266.851 218.337 266.824 217.902 266.742 217.467L264.97 206.216Z" fill="#A692CA"/>
<path d="M219.316 206.271H265.161" stroke="#6F6F6F" stroke-linecap="round" stroke-linejoin="round"/>
<path d="M242.223 197.037C250.397 197.037 257.425 191.288 259.059 183.279L259.658 180.336C256.117 174.044 249.445 170.149 242.223 170.123C235.005 170.123 228.333 174.017 224.791 180.336L225.391 183.279C227.051 191.288 234.079 197.037 242.223 197.037Z" fill="#A692CA"/>
<path d="M235.878 184.043H248.599" stroke="black" stroke-linecap="round" stroke-linejoin="round"/>
<path d="M174.278 219.257C174.278 219.257 170.505 214.49 167.5 210.004C165.409 206.894 163.65 202.944 163.345 198.304C163.191 196.214 163.114 193.768 163.064 191.6C163.064 191.473 160.541 190.404 160.541 190.276L134.924 191.576C135.893 204.677 139.052 215.357 141.246 221.422L176.7 223.616C176.063 222.544 174.278 219.257 174.278 219.257Z" fill="#DB9889"/>
<path d="M158.831 221.422L178.407 221.525C178.431 221.525 178.457 221.448 178.431 221.422C177.794 220.379 176.852 219.257 175.552 218.289C174.226 217.294 170.48 214.466 167.498 210.03C167.498 210.03 167.471 210.004 167.471 210.03C162.831 211.967 159.444 216.249 158.831 221.422Z" fill="#5B5F97"/>
<path d="M152.765 138.839C143.437 132.724 106.962 124.616 106.962 124.616H78.6447L76.3499 138.661C74.3125 151.201 84.0222 162.545 96.7668 162.545L132.043 162.569C129.801 172.892 134.311 182.808 134.95 191.576L163.063 191.6C162.605 170.472 165.56 147.225 152.765 138.839Z" fill="#A692CA"/>
<path opacity="0.2" d="M153.632 203.199C153.632 188.926 160.386 172.051 158.805 160.991L147.437 167.872C140.02 184.567 145.655 211.534 148.101 221.422H161.66C158.604 218.365 153.632 209.444 153.632 203.199Z" fill="#8C8C8C"/>
<path d="M178.432 221.422H168.95H148.101H141.269C141.246 221.422 141.246 221.448 141.246 221.448C142.418 224.762 143.333 226.674 143.41 226.852C143.41 226.852 143.41 226.879 143.437 226.879H179.758C179.785 226.879 179.785 226.879 179.785 226.852C179.835 226.597 180.063 224.125 178.432 221.422Z" fill="black"/>
<path d="M156.996 217.522C154.372 215.535 153.173 213.24 151.822 211.457C149.4 208.245 148.84 205.162 149.35 201.798C149.554 200.498 150.241 198.026 151.159 194.991C151.491 193.922 151.873 192.749 152.231 191.55L138.619 190.632L125.723 191.526C125.595 192.9 125.465 194.304 125.365 195.681C125.365 195.681 125.11 205.186 125.595 210.208C125.951 213.88 127.405 216.631 128.296 220.43L138.059 221.422L145.527 224.303L159.826 224.149C159.699 222.136 160.208 220.607 156.996 217.522Z" fill="#DB9889"/>
<path d="M158.017 173.964C159.136 170.318 160.641 164.914 161.176 162.8C163.113 154.796 166.631 139.988 148.533 133.029C130.869 126.606 109.842 124.542 109.842 124.542L92.4604 123.343L76.3757 124.542C72.4759 136.215 64.7798 162.545 89.7305 162.545C92.1527 162.545 94.4979 162.545 96.7661 162.545C117.87 162.545 132.042 162.569 132.042 162.569C132.042 162.569 131.177 164.837 130.079 168.764C129.646 170.268 129.188 172 128.705 173.964C127.277 179.75 126.283 185.613 125.723 191.526L152.231 191.55C154.014 186.095 156.258 179.495 158.017 173.964Z" fill="#A692CA"/>
<path d="M161.66 221.448C161.687 221.448 161.713 221.422 161.687 221.398C160.641 219.716 159.241 218.185 157.66 217.013C155.06 215.052 153.173 213.216 151.847 211.481H151.823C148.459 213.649 146.138 217.371 145.552 221.525C145.552 221.576 145.578 221.626 145.629 221.626L154.118 222.648L161.66 221.448Z" fill="#5B5F97"/>
<path d="M127.456 221.422H138.034C138.06 221.422 138.06 221.398 138.06 221.398C136.888 215.408 131.815 210.794 125.621 210.208C125.597 210.208 125.597 210.208 125.597 210.234C125.952 213.903 126.539 217.626 127.456 221.422C127.43 221.422 127.43 221.422 127.456 221.422Z" fill="#5B5F97"/>
<path opacity="0.2" d="M130.133 168.737L140.684 162.62C140.71 162.596 140.71 162.569 140.66 162.569H132.043C132.043 162.569 132.019 162.569 132.019 162.596C131.916 162.85 131.178 164.891 130.056 168.713C130.08 168.713 130.106 168.737 130.133 168.737Z" fill="#8C8C8C"/>
<path d="M163.395 226.367C163.345 225.629 163.114 223.793 161.713 221.398C160.668 219.689 159.265 218.185 157.66 216.989C150.269 211.407 148.56 206.998 149.351 201.771C149.555 200.471 150.242 197.999 151.16 194.967C151.492 193.895 151.874 192.722 152.232 191.526C153.991 186.045 156.206 179.468 157.965 173.963C159.087 170.318 160.591 164.914 161.127 162.8C161.483 161.397 161.865 159.765 162.146 158.033" stroke="#8C8C8C" stroke-linecap="round" stroke-linejoin="round"/>
<path d="M140.683 162.62L132.042 162.569" stroke="#8C8C8C" stroke-linecap="round" stroke-linejoin="round"/>
<path d="M83.3085 48.6365C82.6983 52.9422 82.112 73.4361 82.112 73.4361L99.0615 73.0275L100.08 70.5046V69.1039C102.043 70.0457 107.27 70.7593 109.639 68.186C111.984 65.663 111.78 62.7819 111.347 59.9539C111.321 59.8505 111.371 59.7231 111.475 59.6727C112.01 59.3411 113.716 58.195 113.692 57.1737C113.666 56.2557 111.857 55.4917 111.398 55.314C111.347 55.2874 111.297 55.237 111.297 55.1601C111.321 52.8414 111.297 50.4724 111.066 48.4323C110.912 46.9546 110.634 45.6547 110.175 44.6333C108.135 40.3011 104.007 38.3883 97.0984 37.6747C89.1714 36.8098 83.7435 44.8641 83.3085 48.6365Z" fill="#DB9889"/>
<path d="M168.16 87.5577C169.537 85.9261 167.855 84.9817 167.701 84.8809V84.8544C168.823 82.0768 165.969 82.1802 165.74 82.2041C165.74 82.2041 165.714 82.2041 165.714 82.1802C165.231 79.6308 156.896 82.6896 156.283 82.9177C156.259 82.9177 156.259 82.9177 156.259 82.8939C156.309 82.5622 156.641 80.2675 155.519 80.2675C154.296 80.2675 151.16 82.4588 146.292 86.5894C144.074 88.4995 136.198 95.8667 135.919 96.1213C135.919 96.1213 135.919 96.1213 135.919 96.1479L135.943 97.6494L146.905 107.335L148.101 107.463C148.101 107.463 148.128 107.463 148.128 107.439L149.579 104.253C149.632 104.149 149.706 104.099 149.81 104.075C155.62 103.157 157.227 97.599 161.05 96.1983C164.95 94.7445 168.11 93.548 168.11 92.0677C168.11 90.8712 163.6 91.354 161.865 91.5848C161.764 91.6087 161.713 91.4575 161.814 91.4071C163.241 90.7439 167.014 88.908 168.16 87.5577Z" fill="#DB9889"/>
<path d="M92.8939 56.3594L94.6024 57.609" stroke="#905D51" stroke-linecap="round" stroke-linejoin="round"/>
<path d="M105.535 59.4422C105.866 60.0816 106.529 60.4636 107.243 60.4132" stroke="#905D51" stroke-linecap="round" stroke-linejoin="round"/>
<path d="M100.08 69.1038C99.1384 68.5175 98.1436 67.8809 97.3026 67.2946" stroke="#905D51" stroke-linecap="round" stroke-linejoin="round"/>
<path opacity="0.25" d="M100.08 73.0278V69.1041C99.3427 68.7725 98.4248 68.0589 97.3026 67.2948C97.2018 67.2179 97.0718 67.3452 97.1248 67.446L100.08 73.0278Z" fill="#905D51"/>
<path d="M153.708 84.0398L156.231 82.9442" stroke="#905D51" stroke-linecap="round" stroke-linejoin="round"/>
<path d="M165.713 82.204C160.36 83.6578 156.614 85.0082 156.614 85.0082" stroke="#905D51" stroke-linecap="round" stroke-linejoin="round"/>
<path d="M167.676 84.8811C163.545 85.8494 158.781 87.6587 158.781 87.6587" stroke="#905D51" stroke-linecap="round" stroke-linejoin="round"/>
<path d="M106.784 55.0594C107.206 55.0594 107.548 54.7172 107.548 54.2954C107.548 53.8736 107.206 53.5287 106.784 53.5287C106.363 53.5287 106.02 53.8736 106.02 54.2954C106.02 54.7172 106.363 55.0594 106.784 55.0594Z" fill="#0B0C0C"/>
<path d="M127.838 103.818C127.456 102.977 120.011 85.7487 115.833 80.2412C111.092 74.0227 101.152 73.6911 100.184 73.6672C100.13 73.6672 100.107 73.6407 100.107 73.5903V70.5049H81.934L82.0614 74.7629C82.0614 74.7629 70.1312 81.7454 72.9353 100.608C75.5352 118.194 76.4027 124.542 76.4027 124.542H109.869L110.838 115.339C110.838 115.316 110.888 115.316 110.888 115.339C111.448 116.512 117.924 129.588 128.196 129.002C135.765 128.543 140.224 121.457 144.15 114.549L137.829 105.884L130.209 101.603C128.832 102.849 127.991 103.667 127.838 103.818Z" fill="#5B5F97"/>
<path opacity="0.25" d="M109.843 124.542L110.811 115.238L104.134 102.722C104.057 102.571 103.829 102.621 103.829 102.799L103.166 124.566L109.843 124.542Z" fill="black"/>
<path d="M135.918 96.148C134.669 97.2941 133.496 98.4401 132.451 99.4615C131.583 100.276 130.896 100.963 130.209 101.602L144.15 114.549C145.859 111.875 147.132 109.426 148.101 107.516V107.489L135.918 96.148Z" fill="#A692CA"/>
<path d="M127.837 103.818L129.087 106.699" stroke="black" stroke-linecap="round" stroke-linejoin="round"/>
<path d="M110.811 115.238C107.652 109.63 104.134 102.722 104.134 102.722" stroke="black" stroke-linecap="round" stroke-linejoin="round"/>
<path d="M102.553 73.8687C101.993 73.7413 100.157 73.6671 100.157 73.6671" stroke="black" stroke-linecap="round" stroke-linejoin="round"/>
<path opacity="0.25" d="M132.324 99.5356C130.896 100.889 128.015 103.64 127.811 103.844V103.871L129.087 106.699C129.087 106.725 129.111 106.725 129.137 106.699L132.374 99.5622C132.374 99.5356 132.35 99.5118 132.324 99.5356Z" fill="black"/>
<path d="M110.174 44.4821C108.134 40.1473 103.979 37.497 97.071 36.7595C89.144 35.9185 82.8247 40.8874 81.8803 48.6366C81.6256 50.369 81.5752 54.6773 81.6256 59.2138C81.6256 59.3412 81.5248 59.4685 81.3709 59.442C79.23 59.2908 64.1402 58.8053 63.7343 74.431C63.7343 74.5584 63.6308 74.6857 63.5035 74.7096C61.9754 74.9404 53.3852 76.6223 50.1725 86.027C49.7666 87.25 49.4589 88.4491 49.2811 89.5951C48.5675 93.93 49.3316 97.8537 50.9896 101.04C53.5391 105.961 58.2029 109.171 62.7898 109.604C62.8164 109.604 62.8164 109.604 62.8402 109.604C79.7394 111.134 80.8112 93.3172 80.835 92.707C80.835 92.707 80.835 92.6805 80.8616 92.6805C88.9159 90.5635 92.6618 86.1304 94.166 81.3366C96.3573 74.3276 93.784 66.581 92.8422 64.1085C92.6618 63.623 92.3832 63.1906 92.0251 62.8324C90.6243 61.3547 86.7749 56.8182 89.3748 53.0723C92.5875 48.4827 98.6521 54.0645 98.8829 54.2953C98.8829 54.2953 98.8829 54.2953 98.9068 54.2953C99.0341 54.2423 100.156 53.786 100.565 50.2416C100.565 50.2151 100.589 50.2151 100.615 50.2151C104.871 52.3321 104.82 48.3289 104.82 47.8964C104.82 47.8726 104.847 47.8726 104.847 47.8726C108.134 49.91 110.887 48.5093 111.065 48.4058C111.065 48.4058 111.065 48.4058 111.065 48.3819C110.988 46.9016 110.657 45.5009 110.174 44.4821Z" fill="#383838"/>
<path opacity="0.25" d="M75.9172 86.0272C75.5617 86.5631 65.9502 101.626 51.9082 92.0175C50.9903 91.3543 50.0459 90.5398 49.3084 89.6219C49.2818 89.5954 49.2553 89.6219 49.2553 89.6219C48.5682 93.9542 49.3084 97.8301 50.9903 101.016C53.5637 105.908 58.254 109.145 62.8409 109.58C69.4441 110.19 73.6224 107.845 76.2754 104.712C80.4298 99.8171 80.8357 93.0363 80.8357 92.6808C80.8357 92.6808 80.8357 92.6542 80.8623 92.6542C88.7892 90.5637 92.5882 86.258 94.1163 81.4138C94.1163 81.3899 94.0898 81.3634 94.0659 81.3899C90.4208 85.5444 84.7886 88.2955 75.9172 86.0272Z" fill="black"/>
<path d="M81.6032 56.0545V59.2911" stroke="black" stroke-linecap="round" stroke-linejoin="round"/>
<path d="M84.8122 91.3038C83.1303 91.9909 82.0081 92.349 80.8355 92.7072" stroke="black" stroke-linecap="round" stroke-linejoin="round"/>
<path d="M84.0485 135.655H96.8435C97.0717 135.655 97.276 135.857 97.2256 136.111C96.8701 138.202 95.0342 146.896 88.508 146.896C81.8306 146.896 83.3083 137.769 83.6665 135.96C83.7169 135.782 83.8707 135.655 84.0485 135.655Z" fill="#858585"/>
<path d="M76.3502 124.593H109.817" stroke="black" stroke-linecap="round" stroke-linejoin="round"/>
<path d="M81.7302 42.0866C87.556 42.0866 92.2808 37.3591 92.2808 31.5333C92.2808 25.7074 87.556 20.9799 81.7302 20.9799C75.899 20.9799 71.1768 25.7074 71.1768 31.5333C71.1768 37.3591 75.899 42.0866 81.7302 42.0866Z" fill="#383838"/>
<path d="M127.429 221.448C127.865 223.234 128.347 225.067 128.883 226.852L128.91 226.879H163.345C163.369 226.879 163.369 226.879 163.369 226.852C163.369 226.598 163.345 224.252 161.687 221.422L161.66 221.398H127.456C127.456 221.422 127.429 221.448 127.429 221.448Z" fill="black"/>
<path d="M90.317 37.6508C88.9932 39.5105 87.0805 40.9139 84.8626 41.601" stroke="black" stroke-linecap="round" stroke-linejoin="round"/>
<path d="M118.254 166.48V223.993C118.254 225.754 119.687 227.187 121.448 227.187C123.213 227.187 124.642 225.754 124.642 223.993V166.48H118.254Z" fill="#5B5F97"/>
<path opacity="0.2" d="M118.254 166.48V223.993C118.254 225.754 119.687 227.187 121.448 227.187C123.213 227.187 124.642 225.754 124.642 223.993V166.48H118.254Z" fill="#070707"/>
<path d="M64.0626 166.48V223.993C64.0626 225.754 65.4952 227.187 67.2567 227.187C69.0209 227.187 70.4509 225.754 70.4509 223.993V166.48H64.0626Z" fill="#5B5F97"/>
<path d="M83.7876 166.48V223.993C83.7876 225.754 85.2202 227.187 86.9817 227.187C88.7459 227.187 90.1758 225.754 90.1758 223.993V166.48H83.7876Z" fill="#5B5F97"/>
<path opacity="0.2" d="M83.7876 166.48V223.993C83.7876 225.754 85.2202 227.187 86.9817 227.187C88.7459 227.187 90.1758 225.754 90.1758 223.993V166.48H83.7876Z" fill="#070707"/>
<path opacity="0.2" d="M70.4774 167.374V175.932L64.0626 172.995V167.374H70.4774Z" fill="#070707"/>
<path d="M99.4768 148.851H56.6798L52.4139 124.553C51.4668 119.289 54.9952 115.021 60.2559 115.021H83.9943C89.2816 115.021 94.2903 119.263 95.2082 124.553L99.4768 148.851Z" fill="#5B5F97"/>
<path opacity="0.2" d="M99.4765 148.851H93.9584L89.6898 124.553C88.7693 119.289 83.7367 115.021 78.4733 115.021H83.994C89.2813 115.021 94.29 119.263 95.2079 124.553L99.4765 148.851Z" fill="#070707"/>
<path d="M101.214 162.492L98.9139 148.901" stroke="#070707" stroke-linecap="round" stroke-linejoin="round"/>
<path d="M66.5672 138.911L64.7552 128.257" stroke="#070707" stroke-linecap="round" stroke-linejoin="round"/>
<path d="M75.0757 138.605L73.2877 127.975" stroke="#070707" stroke-linecap="round" stroke-linejoin="round"/>
<path d="M83.6361 138.324L81.8215 127.67" stroke="#070707" stroke-linecap="round" stroke-linejoin="round"/>
<path d="M67.1565 205.852C67.1565 207.616 68.5864 209.046 70.3506 209.046H118.716C120.478 209.046 121.91 207.616 121.91 205.852C121.91 204.088 120.478 202.658 118.716 202.658H70.3506C68.5864 202.658 67.1565 204.088 67.1565 205.852Z" fill="#5B5F97"/>
<path d="M98.5292 166.48V223.993C98.5292 225.754 99.9618 227.187 101.723 227.187C103.488 227.187 104.917 225.754 104.917 223.993V166.48H98.5292Z" fill="#5B5F97"/>
<path opacity="0.2" d="M104.917 167.374V175.932L98.5292 172.995V167.374H104.917Z" fill="#070707"/>
<path d="M129.062 165.636C129.062 163.875 127.632 162.442 125.868 162.442H59.6432V165.636C59.6432 167.4 61.0758 168.83 62.8373 168.83H125.868C127.632 168.83 129.062 167.4 129.062 165.636Z" fill="#5B5F97"/>
<path d="M70.2477 169.085H64.0902" stroke="#070707" stroke-linecap="round" stroke-linejoin="round"/>
<path d="M89.9711 169.085H83.8137" stroke="#070707" stroke-linecap="round" stroke-linejoin="round"/>
<path d="M124.565 169.085H118.407" stroke="#070707" stroke-linecap="round" stroke-linejoin="round"/>
<path d="M104.818 169.085H98.684" stroke="#070707" stroke-linecap="round" stroke-linejoin="round"/>
<path d="M59.9783 165.763L57.1423 148.901" stroke="#070707" stroke-linecap="round" stroke-linejoin="round"/>
<path d="M90.2019 209.046H83.8137" stroke="#070707" stroke-linecap="round" stroke-linejoin="round"/>
<path d="M90.2019 202.658H83.8137" stroke="#070707" stroke-linecap="round" stroke-linejoin="round"/>
<path d="M253.436 135.024C253.436 135.171 253.429 135.318 253.414 135.464C253.4 135.61 253.379 135.755 253.35 135.9C253.321 136.044 253.285 136.186 253.243 136.327C253.2 136.467 253.151 136.606 253.095 136.741C253.038 136.877 252.976 137.01 252.906 137.139C252.837 137.269 252.762 137.395 252.68 137.517C252.599 137.639 252.511 137.757 252.418 137.871C252.325 137.984 252.227 138.093 252.123 138.197C252.019 138.301 251.91 138.4 251.797 138.493C251.683 138.586 251.566 138.673 251.444 138.755C251.321 138.837 251.196 138.912 251.066 138.981C250.936 139.051 250.804 139.113 250.668 139.17C250.533 139.226 250.395 139.275 250.254 139.318C250.113 139.36 249.971 139.396 249.827 139.425C249.683 139.454 249.538 139.475 249.392 139.49C249.246 139.504 249.099 139.511 248.952 139.511C248.806 139.511 248.659 139.504 248.513 139.49C248.367 139.475 248.222 139.454 248.078 139.425C247.934 139.396 247.791 139.36 247.651 139.318C247.511 139.275 247.373 139.226 247.237 139.17C247.101 139.113 246.968 139.051 246.839 138.981C246.71 138.912 246.584 138.837 246.462 138.755C246.34 138.673 246.222 138.586 246.108 138.493C245.995 138.4 245.886 138.301 245.782 138.197C245.679 138.093 245.58 137.984 245.487 137.871C245.394 137.757 245.306 137.639 245.225 137.517C245.143 137.395 245.068 137.269 244.998 137.139C244.929 137.01 244.867 136.877 244.811 136.741C244.754 136.606 244.705 136.467 244.662 136.327C244.619 136.186 244.584 136.044 244.555 135.9C244.527 135.755 244.505 135.61 244.491 135.464C244.477 135.318 244.469 135.171 244.469 135.024C244.469 134.877 244.477 134.731 244.491 134.584C244.505 134.438 244.527 134.293 244.555 134.149C244.584 134.005 244.619 133.862 244.662 133.722C244.705 133.581 244.754 133.443 244.811 133.307C244.867 133.171 244.929 133.038 244.998 132.909C245.068 132.779 245.143 132.654 245.225 132.531C245.306 132.409 245.394 132.291 245.487 132.177C245.58 132.064 245.679 131.955 245.782 131.851C245.886 131.747 245.995 131.649 246.108 131.556C246.222 131.462 246.34 131.375 246.462 131.293C246.584 131.212 246.71 131.136 246.839 131.067C246.968 130.998 247.101 130.935 247.237 130.879C247.373 130.822 247.511 130.773 247.651 130.73C247.791 130.688 247.934 130.652 248.078 130.623C248.222 130.595 248.367 130.573 248.513 130.559C248.659 130.544 248.806 130.537 248.952 130.537C249.099 130.537 249.246 130.544 249.392 130.559C249.538 130.573 249.683 130.595 249.827 130.623C249.971 130.652 250.113 130.688 250.254 130.73C250.395 130.773 250.533 130.822 250.668 130.879C250.804 130.935 250.936 130.998 251.066 131.067C251.196 131.136 251.321 131.212 251.444 131.293C251.566 131.375 251.683 131.462 251.797 131.556C251.91 131.649 252.019 131.747 252.123 131.851C252.227 131.955 252.325 132.064 252.418 132.177C252.511 132.291 252.599 132.409 252.68 132.531C252.762 132.654 252.837 132.779 252.906 132.909C252.976 133.038 253.038 133.171 253.095 133.307C253.151 133.443 253.2 133.581 253.243 133.722C253.285 133.862 253.321 134.005 253.35 134.149C253.379 134.293 253.4 134.438 253.414 134.584C253.429 134.731 253.436 134.877 253.436 135.024Z" fill="#9D8BC3"/>
<path d="M253.436 135.024C253.436 137.503 251.43 139.511 248.953 139.511C247.036 139.511 245.4 138.305 244.761 136.611C245.562 137.363 246.644 137.829 247.832 137.829C250.309 137.829 252.315 135.82 252.315 133.341C252.315 132.781 252.214 132.248 252.024 131.754C252.892 132.573 253.436 133.734 253.436 135.024Z" fill="#9D8BC3"/>
<path d="M240.546 140.633C240.546 140.78 240.539 140.927 240.525 141.073C240.51 141.219 240.488 141.364 240.46 141.508C240.431 141.653 240.396 141.795 240.353 141.935C240.31 142.076 240.261 142.214 240.205 142.35C240.149 142.486 240.086 142.619 240.017 142.748C239.947 142.878 239.872 143.004 239.791 143.126C239.709 143.248 239.622 143.366 239.528 143.48C239.435 143.593 239.337 143.702 239.233 143.806C239.129 143.91 239.021 144.008 238.907 144.101C238.793 144.195 238.676 144.282 238.553 144.364C238.432 144.446 238.306 144.521 238.176 144.59C238.047 144.659 237.914 144.722 237.779 144.778C237.643 144.835 237.505 144.884 237.364 144.927C237.224 144.97 237.082 145.005 236.937 145.034C236.793 145.062 236.648 145.084 236.502 145.098C236.356 145.113 236.21 145.12 236.063 145.12C235.916 145.12 235.769 145.113 235.623 145.098C235.477 145.084 235.332 145.062 235.188 145.034C235.044 145.005 234.902 144.97 234.761 144.927C234.621 144.884 234.483 144.835 234.347 144.778C234.211 144.722 234.079 144.659 233.949 144.59C233.82 144.521 233.694 144.446 233.572 144.364C233.45 144.282 233.332 144.195 233.218 144.101C233.105 144.008 232.996 143.91 232.893 143.806C232.789 143.702 232.69 143.593 232.597 143.48C232.504 143.366 232.417 143.248 232.335 143.126C232.253 143.004 232.178 142.878 232.109 142.748C232.039 142.619 231.977 142.486 231.921 142.35C231.864 142.214 231.815 142.076 231.772 141.935C231.73 141.795 231.694 141.653 231.666 141.508C231.637 141.364 231.615 141.219 231.601 141.073C231.586 140.927 231.579 140.78 231.579 140.633C231.579 140.486 231.586 140.339 231.601 140.193C231.615 140.047 231.637 139.902 231.666 139.758C231.694 139.613 231.73 139.471 231.772 139.33C231.815 139.19 231.864 139.052 231.921 138.916C231.977 138.78 232.039 138.647 232.109 138.518C232.178 138.388 232.253 138.262 232.335 138.14C232.417 138.018 232.504 137.9 232.597 137.786C232.69 137.673 232.789 137.564 232.893 137.46C232.996 137.356 233.105 137.258 233.218 137.164C233.332 137.071 233.45 136.984 233.572 136.902C233.694 136.82 233.82 136.745 233.949 136.676C234.079 136.606 234.211 136.544 234.347 136.488C234.483 136.431 234.621 136.382 234.761 136.339C234.902 136.297 235.044 136.261 235.188 136.232C235.332 136.203 235.477 136.182 235.623 136.167C235.769 136.153 235.916 136.146 236.063 136.146C236.21 136.146 236.356 136.153 236.502 136.167C236.648 136.182 236.793 136.203 236.937 136.232C237.082 136.261 237.224 136.297 237.364 136.339C237.505 136.382 237.643 136.431 237.779 136.488C237.914 136.544 238.047 136.606 238.176 136.676C238.306 136.745 238.432 136.82 238.553 136.902C238.676 136.984 238.793 137.071 238.907 137.164C239.021 137.258 239.129 137.356 239.233 137.46C239.337 137.564 239.435 137.673 239.528 137.786C239.622 137.9 239.709 138.018 239.791 138.14C239.872 138.262 239.947 138.388 240.017 138.518C240.086 138.647 240.149 138.78 240.205 138.916C240.261 139.052 240.31 139.19 240.353 139.33C240.396 139.471 240.431 139.613 240.46 139.758C240.488 139.902 240.51 140.047 240.525 140.193C240.539 140.339 240.546 140.486 240.546 140.633Z" fill="#9D8BC3"/>
<path d="M240.545 140.633C240.545 143.112 238.539 145.12 236.062 145.12C234.392 145.12 232.935 144.206 232.167 142.849C232.817 143.224 233.574 143.437 234.381 143.437C236.858 143.437 238.864 141.43 238.864 138.95C238.864 138.143 238.651 137.386 238.276 136.735C239.632 137.503 240.545 138.962 240.545 140.633Z" fill="#9D8BC3"/>
<path d="M253.436 117.637V123.358L240.546 129.252V123.246L253.436 117.637Z" fill="#9D8BC3"/>
<path d="M253.436 117.637V123.358L240.546 129.252V127.104L249.646 122.944C250.589 122.513 251.194 121.57 251.194 120.532V118.613L253.436 117.637Z" fill="#9D8BC3"/>
<mask id="mask0_1_14" style="mask-type:luminance" maskUnits="userSpaceOnUse" x="231" y="117" width="23" height="29">
<path d="M231 117H254V145.768H231V117Z" fill="white"/>
</mask>
<g mask="url(#mask0_1_14)">
<path d="M253.743 117.168C253.584 117.065 253.384 117.047 253.212 117.123L240.322 122.732C240.118 122.82 239.985 123.022 239.985 123.246V137.467C239.06 136.321 237.646 135.585 236.062 135.585C233.281 135.585 231.019 137.85 231.019 140.633C231.019 143.417 233.281 145.681 236.062 145.681C238.843 145.681 241.106 143.417 241.106 140.633V129.616L252.875 124.231V131.858C251.95 130.712 250.536 129.976 248.952 129.976C246.171 129.976 243.908 132.241 243.908 135.024C243.908 137.808 246.171 140.072 248.952 140.072C251.733 140.072 253.996 137.808 253.996 135.024V117.637C253.996 117.448 253.901 117.271 253.743 117.168ZM236.062 144.559C233.899 144.559 232.139 142.798 232.139 140.633C232.139 138.468 233.899 136.707 236.062 136.707C238.225 136.707 239.985 138.468 239.985 140.633C239.985 142.798 238.225 144.559 236.062 144.559ZM248.952 138.95C246.789 138.95 245.029 137.189 245.029 135.024C245.029 132.86 246.789 131.098 248.952 131.098C251.115 131.098 252.875 132.86 252.875 135.024C252.875 137.189 251.115 138.95 248.952 138.95ZM241.106 128.382V123.613L252.875 118.493V122.997L241.106 128.382Z" fill="#9D8BC3"/>
</g>
<path d="M35.4851 40.4567C35.4851 40.5911 35.4783 40.7249 35.4651 40.8586C35.4522 40.9919 35.4326 41.1246 35.4061 41.2561C35.38 41.3877 35.3475 41.5178 35.3085 41.6462C35.2699 41.7745 35.2245 41.9007 35.1734 42.0248C35.1219 42.1485 35.0647 42.2696 35.0014 42.388C34.9385 42.5063 34.8695 42.6214 34.7951 42.733C34.7204 42.8445 34.6407 42.9521 34.5556 43.0558C34.4709 43.1595 34.3808 43.2589 34.2861 43.3536C34.1913 43.4487 34.0919 43.5388 33.9883 43.6239C33.8846 43.709 33.7773 43.7887 33.6658 43.8634C33.5542 43.9378 33.4395 44.0068 33.3211 44.0701C33.2028 44.1333 33.082 44.1905 32.9579 44.242C32.8342 44.2931 32.708 44.3382 32.5797 44.3772C32.4513 44.4161 32.3215 44.4487 32.19 44.4751C32.0584 44.5012 31.9261 44.5209 31.7928 44.5341C31.6591 44.5473 31.5254 44.5538 31.3913 44.5538C31.2572 44.5538 31.1235 44.5473 30.9902 44.5341C30.8568 44.5209 30.7242 44.5012 30.593 44.4751C30.4614 44.4487 30.3313 44.4161 30.2033 44.3772C30.075 44.3382 29.9488 44.2931 29.8251 44.242C29.701 44.1905 29.5798 44.1333 29.4618 44.0701C29.3435 44.0068 29.2288 43.9378 29.1172 43.8634C29.0057 43.7887 28.8981 43.709 28.7944 43.6239C28.6911 43.5388 28.5917 43.4487 28.4969 43.3536C28.4022 43.2589 28.3121 43.1595 28.227 43.0558C28.1419 42.9521 28.0622 42.8445 27.9878 42.733C27.9135 42.6214 27.8445 42.5063 27.7812 42.388C27.7179 42.2696 27.6607 42.1485 27.6096 42.0248C27.5581 41.9007 27.5131 41.7745 27.4741 41.6462C27.4351 41.5178 27.4026 41.3877 27.3765 41.2561C27.3504 41.1246 27.3307 40.9919 27.3175 40.8586C27.3046 40.7249 27.2979 40.5911 27.2979 40.4567C27.2979 40.3227 27.3046 40.189 27.3175 40.0552C27.3307 39.9219 27.3504 39.7893 27.3765 39.6577C27.4026 39.5261 27.4351 39.396 27.4741 39.2677C27.5131 39.1393 27.5581 39.0131 27.6096 38.8891C27.6607 38.765 27.7179 38.6438 27.7812 38.5255C27.8445 38.4071 27.9135 38.2924 27.9878 38.1808C28.0622 38.0693 28.1419 37.9617 28.227 37.8576C28.3121 37.754 28.4022 37.6549 28.4969 37.5598C28.5917 37.4651 28.6911 37.375 28.7944 37.2899C28.8981 37.2048 29.0057 37.1251 29.1172 37.0504C29.2288 36.976 29.3435 36.907 29.4618 36.8438C29.5798 36.7805 29.701 36.7233 29.8251 36.6718C29.9488 36.6203 30.075 36.5753 30.2033 36.5363C30.3313 36.4973 30.4614 36.4648 30.593 36.4387C30.7242 36.4126 30.8568 36.3929 30.9902 36.3797C31.1235 36.3665 31.2572 36.36 31.3913 36.36C31.5254 36.36 31.6591 36.3665 31.7928 36.3797C31.9261 36.3929 32.0584 36.4126 32.19 36.4387C32.3215 36.4648 32.4513 36.4973 32.5797 36.5363C32.708 36.5753 32.8342 36.6203 32.9579 36.6718C33.082 36.7233 33.2028 36.7805 33.3211 36.8438C33.4395 36.907 33.5542 36.976 33.6658 37.0504C33.7773 37.1251 33.8846 37.2048 33.9883 37.2899C34.0919 37.375 34.1913 37.4651 34.2861 37.5598C34.3808 37.6549 34.4709 37.754 34.5556 37.8576C34.6407 37.9617 34.7204 38.0693 34.7951 38.1808C34.8695 38.2924 34.9385 38.4071 35.0014 38.5255C35.0647 38.6438 35.1219 38.765 35.1734 38.8891C35.2245 39.0131 35.2699 39.1393 35.3085 39.2677C35.3475 39.396 35.38 39.5261 35.4061 39.6577C35.4326 39.7893 35.4522 39.9219 35.4651 40.0552C35.4783 40.189 35.4851 40.3227 35.4851 40.4567Z" fill="#9D8BC3"/>
<path d="M35.4854 40.4567C35.4854 42.7204 33.6535 44.5537 31.3916 44.5537C29.6416 44.5537 28.1475 43.4526 27.5641 41.906C28.2959 42.5924 29.2833 43.0175 30.3684 43.0175C32.63 43.0175 34.4618 41.1838 34.4618 38.9205C34.4618 38.4085 34.3696 37.9219 34.1959 37.4711C34.9888 38.219 35.4854 39.279 35.4854 40.4567Z" fill="#9D8BC3"/>
<path d="M23.716 45.578C23.716 45.7121 23.7095 45.8461 23.6963 45.9795C23.6831 46.1132 23.6634 46.2455 23.6373 46.377C23.6112 46.5089 23.5787 46.6387 23.5397 46.7671C23.5008 46.8954 23.4557 47.0216 23.4046 47.1457C23.3531 47.2697 23.2959 47.3909 23.2326 47.5093C23.1693 47.6276 23.1007 47.7423 23.0263 47.8539C22.9516 47.9654 22.8719 48.0734 22.7868 48.1771C22.7017 48.2808 22.612 48.3801 22.5173 48.4749C22.4222 48.5696 22.3231 48.6597 22.2195 48.7448C22.1158 48.8299 22.0082 48.91 21.8966 48.9843C21.7854 49.059 21.6703 49.1277 21.5523 49.191C21.434 49.2542 21.3128 49.3114 21.1891 49.3629C21.0651 49.4144 20.9392 49.4595 20.8109 49.4984C20.6825 49.5374 20.5528 49.5699 20.4212 49.596C20.2896 49.6221 20.1573 49.6418 20.0236 49.655C19.8903 49.6682 19.7566 49.6747 19.6225 49.6747C19.4885 49.6747 19.3547 49.6682 19.2214 49.655C19.088 49.6418 18.9554 49.6221 18.8238 49.596C18.6923 49.5699 18.5625 49.5374 18.4342 49.4984C18.3058 49.4595 18.18 49.4144 18.0559 49.3629C17.9322 49.3114 17.811 49.2542 17.693 49.191C17.5747 49.1277 17.46 49.059 17.3484 48.9843C17.2369 48.91 17.1293 48.8299 17.0256 48.7448C16.9219 48.6597 16.8229 48.5696 16.7281 48.4749C16.633 48.3801 16.5433 48.2808 16.4582 48.1771C16.3731 48.0734 16.2934 47.9654 16.219 47.8539C16.1443 47.7423 16.0757 47.6276 16.0124 47.5093C15.9491 47.3909 15.8919 47.2697 15.8408 47.1457C15.7893 47.0216 15.7443 46.8954 15.7053 46.7671C15.6663 46.6387 15.6338 46.5089 15.6077 46.377C15.5816 46.2455 15.5619 46.1132 15.5487 45.9795C15.5355 45.8461 15.5291 45.7121 15.5291 45.578C15.5291 45.4436 15.5355 45.3099 15.5487 45.1765C15.5619 45.0428 15.5816 44.9102 15.6077 44.7786C15.6338 44.647 15.6663 44.5169 15.7053 44.3886C15.7443 44.2602 15.7893 44.134 15.8408 44.01C15.8919 43.8863 15.9491 43.7651 16.0124 43.6467C16.0757 43.5284 16.1443 43.4133 16.219 43.3017C16.2934 43.1902 16.3731 43.0826 16.4582 42.9789C16.5433 42.8752 16.633 42.7758 16.7281 42.6811C16.8229 42.586 16.9219 42.4963 17.0256 42.4108C17.1293 42.3257 17.2369 42.246 17.3484 42.1713C17.46 42.0969 17.5747 42.0279 17.693 41.9647C17.811 41.9014 17.9322 41.8442 18.0559 41.7931C18.18 41.7416 18.3058 41.6965 18.4342 41.6576C18.5625 41.6186 18.6923 41.5861 18.8238 41.5596C18.9554 41.5335 19.088 41.5138 19.2214 41.5006C19.3547 41.4877 19.4885 41.481 19.6225 41.481C19.7566 41.481 19.8903 41.4877 20.0236 41.5006C20.1573 41.5138 20.2896 41.5335 20.4212 41.5596C20.5528 41.5861 20.6825 41.6186 20.8109 41.6576C20.9392 41.6965 21.0651 41.7416 21.1891 41.7931C21.3128 41.8442 21.434 41.9014 21.5523 41.9647C21.6703 42.0279 21.7854 42.0969 21.8966 42.1713C22.0082 42.246 22.1158 42.3257 22.2195 42.4108C22.3231 42.4963 22.4222 42.586 22.5173 42.6811C22.612 42.7758 22.7017 42.8752 22.7868 42.9789C22.8719 43.0826 22.9516 43.1902 23.0263 43.3017C23.1007 43.4133 23.1693 43.5284 23.2326 43.6467C23.2959 43.7651 23.3531 43.8863 23.4046 44.01C23.4557 44.134 23.5008 44.2602 23.5397 44.3886C23.5787 44.5169 23.6112 44.647 23.6373 44.7786C23.6634 44.9102 23.6831 45.0428 23.6963 45.1765C23.7095 45.3099 23.716 45.4436 23.716 45.578Z" fill="#9D8BC3"/>
<path d="M23.7153 45.5781C23.7153 47.8415 21.8834 49.6748 19.6218 49.6748C18.097 49.6748 16.7667 48.84 16.0657 47.6009C16.6591 47.9441 17.3498 48.1386 18.0867 48.1386C20.3486 48.1386 22.1801 46.3053 22.1801 44.0415C22.1801 43.3043 21.986 42.6129 21.6432 42.0187C22.8812 42.7205 23.7153 44.0519 23.7153 45.5781Z" fill="#9D8BC3"/>
<path d="M35.485 24.5815V29.8047L23.7158 35.187V29.7025L35.485 24.5815Z" fill="#9D8BC3"/>
<path d="M35.485 24.5815V29.8047L23.7158 35.187V33.2257L32.0247 29.4268C32.8855 29.0332 33.4379 28.1727 33.4379 27.2253V25.4725L35.485 24.5815Z" fill="#9D8BC3"/>
<mask id="mask1_1_14" style="mask-type:luminance" maskUnits="userSpaceOnUse" x="15" y="24" width="21" height="27">
<path d="M15 24H36V50.2668H15V24Z" fill="white"/>
</mask>
<g mask="url(#mask1_1_14)">
<path d="M35.7653 24.1534C35.6209 24.0591 35.4378 24.0426 35.2809 24.112L23.5121 29.2333C23.3251 29.3141 23.2043 29.4985 23.2043 29.7027V42.6874C22.3595 41.6409 21.0685 40.9692 19.6224 40.9692C17.083 40.9692 15.0173 43.0366 15.0173 45.5782C15.0173 48.1197 17.083 50.1872 19.6224 50.1872C22.1618 50.1872 24.2278 48.1197 24.2278 45.5782V35.5186L34.9731 30.6022V37.5664C34.1283 36.5196 32.8373 35.8479 31.3912 35.8479C28.8518 35.8479 26.7861 37.9153 26.7861 40.4569C26.7861 42.9984 28.8518 45.0659 31.3912 45.0659C33.9309 45.0659 35.9966 42.9984 35.9966 40.4569V24.5814C35.9966 24.4091 35.9097 24.2478 35.7653 24.1534ZM19.6224 49.1629C17.6475 49.1629 16.0405 47.5545 16.0405 45.5782C16.0405 43.6015 17.6475 41.9934 19.6224 41.9934C21.5973 41.9934 23.2043 43.6015 23.2043 45.5782C23.2043 47.5545 21.5973 49.1629 19.6224 49.1629ZM31.3912 44.0416C29.4167 44.0416 27.8093 42.4335 27.8093 40.4569C27.8093 38.4806 29.4167 36.8721 31.3912 36.8721C33.3661 36.8721 34.9731 38.4806 34.9731 40.4569C34.9731 42.4335 33.3661 44.0416 31.3912 44.0416ZM24.2278 34.3925V30.0384L34.9731 25.3629V29.476L24.2278 34.3925Z" fill="#9D8BC3"/>
</g>
<path d="M98 56.4708C98 52.8972 95.5376 50.0002 92.5 50.0002C91.98 50.0002 91.4768 50.0851 91 50.2438C88.6915 51.0119 87 53.509 87 56.4708C87 60.0444 89.4624 62.9414 92.5 62.9414C95.5376 62.9414 98 60.0444 98 56.4708Z" fill="#5B5F97"/>
<ellipse cx="4.36765" cy="5.17647" rx="4.36765" ry="5.17647" transform="matrix(1 0 0 -1 87.9701 61.6474)" fill="#A692CA"/>
<path d="M97.5 36.7998C93.1 37.9998 91.6667 46.1665 91.5 49.9998L94.5 50.4998C94.3333 46.9998 95.4 39.4998 101 37.4998L97.5 36.7998Z" fill="#5B5F97"/>
</g>
<defs>
<clipPath id="clip0_1_14">
<rect width="350" height="227" fill="white"/>
</clipPath>
</defs>
</svg>
